<svg width="25" height="25" viewBox="0 0 25 25" fill="none" xmlns="http://www.w3.org/2000/svg">
<path d="M3.35884 4C3.13287 4.03668 2.97709 4.22469 3.00277 4.42799L4.5503 19.8601C4.57084 20.0175 4.69581 20.1474 4.86528 20.1902L11.8771 21.9878C11.9576 22.0092 12.0432 22.0092 12.1236 21.9878L19.1354 20.1902C19.3049 20.1474 19.4299 20.0175 19.4504 19.8601L20.998 4.42799C21.0099 4.31793 20.9689 4.20941 20.885 4.12687C20.8011 4.04586 20.683 4 20.5597 4H3.44101C3.42731 4 3.41362 4 3.39992 4C3.38623 4 3.37253 4 3.35884 4ZM3.92033 4.78261H20.0804L18.615 19.5177L12.0004 21.1929L5.38569 19.5177L3.92033 4.78261ZM6.53607 7.15489C6.3101 7.19158 6.15432 7.37959 6.18 7.58288L6.76888 13.3668C6.78258 13.5686 6.96746 13.7276 7.19343 13.7337H14.1916L13.9998 15.5312L12.0141 15.9103L10.0009 15.5312L9.93242 14.8954C9.91873 14.689 9.72528 14.5285 9.49418 14.5285H7.35777C7.23451 14.5285 7.11639 14.5744 7.03251 14.6554C6.94863 14.7379 6.90754 14.8465 6.91953 14.9565L7.16604 17.3533C7.17973 17.5107 7.29785 17.6467 7.46733 17.6957L11.8223 18.8818L11.8771 18.894C11.9576 18.9154 12.0432 18.9154 12.1236 18.894L16.5334 17.6957C16.708 17.6513 16.833 17.5153 16.8484 17.3533L17.4236 11.4715C17.4356 11.3629 17.3962 11.2559 17.3157 11.1749C17.2353 11.0939 17.1206 11.0465 16.999 11.0435H9.53527L9.42571 9.83288H17.1908C17.4184 9.83441 17.6084 9.68003 17.629 9.47826L17.8207 7.58288C17.8327 7.47283 17.7916 7.3643 17.7077 7.28176C17.6239 7.20075 17.5057 7.15489 17.3825 7.15489H6.61824C6.59085 7.15183 6.56346 7.15183 6.53607 7.15489ZM7.09756 7.9375H16.9032L16.7936 9.05027H8.94638C8.82313 9.05027 8.70501 9.09613 8.62113 9.17714C8.53724 9.25968 8.49616 9.36821 8.50814 9.47826L8.71357 11.4715C8.73411 11.6686 8.91728 11.8215 9.13811 11.8261H16.5197L15.9993 17.0231L12.0004 18.0992L8.00143 17.0231L7.83709 15.3111H9.09703L9.15181 15.8859C9.1655 16.0586 9.30416 16.2023 9.49418 16.2405L11.9319 16.6929C11.9901 16.7036 12.0517 16.7036 12.1099 16.6929L14.5065 16.2405C14.6966 16.2023 14.8352 16.0586 14.8489 15.8859L15.1091 13.3668C15.116 13.2583 15.0732 13.1529 14.991 13.0749C14.9071 12.9954 14.7924 12.9511 14.6709 12.9511H7.59058L7.09756 7.9375Z" fill="#F16528"/>
</svg>
