<svg width="18" height="18" viewBox="0 0 18 18" fill="none" xmlns="http://www.w3.org/2000/svg">
<path d="M1.14342 0C0.517299 0 0 0.517299 0 1.14342V16.8566C0 17.4827 0.517299 18 1.14342 18H16.8566C17.4827 18 18 17.4844 18 16.8566V1.14342C18 0.517299 17.4844 0 16.8566 0H1.14342ZM1.14342 0.857143H16.8566C17.0156 0.857143 17.1429 0.984375 17.1429 1.14342V9V16.8566C17.1429 17.0156 17.0156 17.1429 16.8566 17.1429H1.14342C0.984375 17.1429 0.857143 17.0156 0.857143 16.8566V1.14342C0.857143 0.984375 0.984375 0.857143 1.14342 0.857143ZM8.14286 8.14286V13.5318C8.14286 14.3588 7.8298 14.5714 7.28571 14.5714C6.71652 14.5714 6.32143 14.2165 6.06027 13.7561L4.71429 14.5714C5.10435 15.3968 6.06027 16.2857 7.38616 16.2857C8.85268 16.2857 9.85714 15.5056 9.85714 13.793V8.14286H8.14286ZM13.4799 8.14286C12.0201 8.14286 11.0843 9.07701 11.0843 10.3041C11.0843 11.635 11.8694 12.2645 13.0497 12.7667L13.4581 12.9425C14.2031 13.269 14.5714 13.4682 14.5714 14.029C14.5714 14.4961 14.2165 14.8343 13.5385 14.8343C12.7316 14.8343 12.3499 14.2868 12 13.7143L10.7143 14.5714C11.1948 15.5206 12.0569 16.2857 13.5753 16.2857C15.1289 16.2857 16.2857 15.4788 16.2857 14.0073C16.2857 12.6412 15.5022 12.0335 14.111 11.4375L13.7026 11.2634C13.0011 10.9587 12.6964 10.7612 12.6964 10.2706C12.6964 9.87388 13.0011 9.5692 13.4799 9.5692C13.9503 9.5692 14.2517 9.76842 14.5312 10.2706L15.8052 9.45368C15.2679 8.50446 14.5195 8.14286 13.4799 8.14286Z" fill="#C0A900"/>
</svg>
