<svg width="18" height="18" viewBox="0 0 18 18" fill="none" xmlns="http://www.w3.org/2000/svg">
<path d="M0.969856 0C0.395257 0 -0.0623705 0.493167 0.00696329 1.04438L1.76275 15.0857C1.84059 15.7071 2.3003 16.224 2.92513 16.3955L8.55695 17.9406C8.84058 18.0183 9.14131 18.0201 9.42638 17.9454L15.3493 16.3949C15.9943 16.2262 16.4676 15.6903 16.5342 15.0493L17.9952 1.02559C18.052 0.480279 17.5977 0 17.0304 0H0.969856ZM0.969856 0.62069H17.0304C17.2307 0.62069 17.3756 0.776045 17.356 0.963766L17.3096 1.40928C17.2826 1.35687 17.2408 1.3129 17.1891 1.28244C17.1374 1.25198 17.0778 1.23628 17.0172 1.23714C16.9322 1.23842 16.8511 1.27227 16.7918 1.33125C16.7326 1.39023 16.6999 1.46952 16.7011 1.55172V2.17241C16.7003 2.22917 16.7157 2.28505 16.7455 2.33395C16.7753 2.38286 16.8184 2.42293 16.8702 2.44981C16.9219 2.47668 16.9803 2.48933 17.039 2.48638C17.0976 2.48342 17.1543 2.46498 17.2029 2.43305L15.895 14.9869C15.855 15.3725 15.5735 15.6936 15.1818 15.7961L9.25826 17.3466C9.08598 17.3917 8.90439 17.3906 8.73259 17.3435L3.10077 15.7985C2.7216 15.6944 2.44749 15.3846 2.40071 15.0111L0.831225 2.45912C0.880459 2.48063 0.934514 2.4898 0.988387 2.48576C1.04226 2.48173 1.09421 2.46463 1.13943 2.43605C1.18464 2.40746 1.22167 2.36832 1.24707 2.32223C1.27247 2.27615 1.28544 2.22462 1.28476 2.17241V1.55172C1.28535 1.5102 1.27731 1.46899 1.26111 1.43053C1.24492 1.39206 1.22091 1.35713 1.19049 1.32779C1.16007 1.29846 1.12387 1.27532 1.08404 1.25975C1.0442 1.24418 1.00153 1.23649 0.958565 1.23714C0.906324 1.23797 0.855081 1.2511 0.80928 1.27539C0.763479 1.29968 0.724502 1.33441 0.69573 1.37655L0.644919 0.969828C0.621113 0.78056 0.767216 0.62069 0.969856 0.62069ZM2.56443 1.23714C2.47936 1.23842 2.39829 1.27227 2.33902 1.33125C2.27975 1.39023 2.24711 1.46952 2.24828 1.55172V2.17241C2.24768 2.21354 2.25554 2.25437 2.27141 2.29253C2.28728 2.33069 2.31084 2.36543 2.34072 2.39471C2.37061 2.424 2.40622 2.44726 2.44548 2.46313C2.48475 2.479 2.52689 2.48718 2.56945 2.48718C2.61201 2.48718 2.65415 2.479 2.69342 2.46313C2.73269 2.44726 2.76829 2.424 2.79818 2.39471C2.82806 2.36543 2.85162 2.33069 2.86749 2.29253C2.88336 2.25437 2.89123 2.21354 2.89062 2.17241V1.55172C2.89121 1.5102 2.88317 1.46899 2.86698 1.43053C2.85079 1.39206 2.82677 1.35713 2.79636 1.32779C2.76594 1.29846 2.72974 1.27532 2.6899 1.25975C2.65007 1.24418 2.6074 1.23649 2.56443 1.23714ZM4.1703 1.23714C4.08523 1.23842 4.00416 1.27227 3.94489 1.33125C3.88562 1.39023 3.85298 1.46952 3.85414 1.55172V2.17241C3.85354 2.21354 3.86141 2.25437 3.87728 2.29253C3.89315 2.33069 3.91671 2.36543 3.94659 2.39471C3.97647 2.424 4.01208 2.44726 4.05135 2.46313C4.09062 2.479 4.13275 2.48718 4.17532 2.48718C4.21788 2.48718 4.26002 2.479 4.29929 2.46313C4.33855 2.44726 4.37416 2.424 4.40405 2.39471C4.43393 2.36543 4.45749 2.33069 4.47336 2.29253C4.48923 2.25437 4.49709 2.21354 4.49649 2.17241V1.55172C4.49708 1.5102 4.48904 1.46899 4.47285 1.43053C4.45666 1.39206 4.43264 1.35713 4.40222 1.32779C4.37181 1.29846 4.33561 1.27532 4.29577 1.25975C4.25593 1.24418 4.21327 1.23649 4.1703 1.23714ZM5.77617 1.23714C5.6911 1.23842 5.61003 1.27227 5.55076 1.33125C5.49148 1.39023 5.45885 1.46952 5.46001 1.55172V2.17241C5.45941 2.21354 5.46727 2.25437 5.48314 2.29253C5.49901 2.33069 5.52257 2.36543 5.55246 2.39471C5.58234 2.424 5.61795 2.44726 5.65722 2.46313C5.69648 2.479 5.73862 2.48718 5.78119 2.48718C5.82375 2.48718 5.86589 2.479 5.90515 2.46313C5.94442 2.44726 5.98003 2.424 6.00991 2.39471C6.0398 2.36543 6.06336 2.33069 6.07923 2.29253C6.0951 2.25437 6.10296 2.21354 6.10236 2.17241V1.55172C6.10295 1.5102 6.09491 1.46899 6.07872 1.43053C6.06252 1.39206 6.03851 1.35713 6.00809 1.32779C5.97768 1.29846 5.94148 1.27532 5.90164 1.25975C5.8618 1.24418 5.81914 1.23649 5.77617 1.23714ZM7.38203 1.23714C7.29696 1.23842 7.2159 1.27227 7.15662 1.33125C7.09735 1.39023 7.06471 1.46952 7.06588 1.55172V2.17241C7.06528 2.21354 7.07314 2.25437 7.08901 2.29253C7.10488 2.33069 7.12844 2.36543 7.15833 2.39471C7.18821 2.424 7.22382 2.44726 7.26308 2.46313C7.30235 2.479 7.34449 2.48718 7.38705 2.48718C7.42962 2.48718 7.47176 2.479 7.51102 2.46313C7.55029 2.44726 7.5859 2.424 7.61578 2.39471C7.64566 2.36543 7.66922 2.33069 7.68509 2.29253C7.70096 2.25437 7.70883 2.21354 7.70823 2.17241V1.55172C7.70882 1.5102 7.70078 1.46899 7.68458 1.43053C7.66839 1.39206 7.64438 1.35713 7.61396 1.32779C7.58354 1.29846 7.54734 1.27532 7.50751 1.25975C7.46767 1.24418 7.425 1.23649 7.38203 1.23714ZM8.9879 1.23714C8.90283 1.23842 8.82176 1.27227 8.76249 1.33125C8.70322 1.39023 8.67058 1.46952 8.67175 1.55172V2.17241C8.67114 2.21354 8.67901 2.25437 8.69488 2.29253C8.71075 2.33069 8.73431 2.36543 8.76419 2.39471C8.79408 2.424 8.82969 2.44726 8.86895 2.46313C8.90822 2.479 8.95036 2.48718 8.99292 2.48718C9.03548 2.48718 9.07762 2.479 9.11689 2.46313C9.15615 2.44726 9.19176 2.424 9.22165 2.39471C9.25153 2.36543 9.27509 2.33069 9.29096 2.29253C9.30683 2.25437 9.3147 2.21354 9.31409 2.17241V1.55172C9.31468 1.5102 9.30664 1.46899 9.29045 1.43053C9.27426 1.39206 9.25024 1.35713 9.21983 1.32779C9.18941 1.29846 9.15321 1.27532 9.11337 1.25975C9.07354 1.24418 9.03087 1.23649 8.9879 1.23714ZM10.5938 1.23714C10.5087 1.23842 10.4276 1.27227 10.3684 1.33125C10.3091 1.39023 10.2764 1.46952 10.2776 1.55172V2.17241C10.277 2.21354 10.2849 2.25437 10.3007 2.29253C10.3166 2.33069 10.3402 2.36543 10.3701 2.39471C10.3999 2.424 10.4356 2.44726 10.4748 2.46313C10.5141 2.479 10.5562 2.48718 10.5988 2.48718C10.6414 2.48718 10.6835 2.479 10.7228 2.46313C10.762 2.44726 10.7976 2.424 10.8275 2.39471C10.8574 2.36543 10.881 2.33069 10.8968 2.29253C10.9127 2.25437 10.9206 2.21354 10.92 2.17241V1.55172C10.9205 1.5102 10.9125 1.46899 10.8963 1.43053C10.8801 1.39206 10.8561 1.35713 10.8257 1.32779C10.7953 1.29846 10.7591 1.27532 10.7192 1.25975C10.6794 1.24418 10.6367 1.23649 10.5938 1.23714ZM12.1996 1.23714C12.1146 1.23842 12.0335 1.27227 11.9742 1.33125C11.915 1.39023 11.8823 1.46952 11.8835 1.55172V2.17241C11.8829 2.21354 11.8907 2.25437 11.9066 2.29253C11.9225 2.33069 11.946 2.36543 11.9759 2.39471C12.0058 2.424 12.0414 2.44726 12.0807 2.46313C12.12 2.479 12.1621 2.48718 12.2047 2.48718C12.2472 2.48718 12.2894 2.479 12.3286 2.46313C12.3679 2.44726 12.4035 2.424 12.4334 2.39471C12.4633 2.36543 12.4868 2.33069 12.5027 2.29253C12.5186 2.25437 12.5264 2.21354 12.5258 2.17241V1.55172C12.5264 1.5102 12.5184 1.46899 12.5022 1.43053C12.486 1.39206 12.462 1.35713 12.4316 1.32779C12.4011 1.29846 12.3649 1.27532 12.3251 1.25975C12.2853 1.24418 12.2426 1.23649 12.1996 1.23714ZM13.8055 1.23714C13.7204 1.23842 13.6394 1.27227 13.5801 1.33125C13.5208 1.39023 13.4882 1.46952 13.4893 1.55172V2.17241C13.4887 2.21354 13.4966 2.25437 13.5125 2.29253C13.5283 2.33069 13.5519 2.36543 13.5818 2.39471C13.6117 2.424 13.6473 2.44726 13.6866 2.46313C13.7258 2.479 13.768 2.48718 13.8105 2.48718C13.8531 2.48718 13.8952 2.479 13.9345 2.46313C13.9738 2.44726 14.0094 2.424 14.0392 2.39471C14.0691 2.36543 14.0927 2.33069 14.1086 2.29253C14.1244 2.25437 14.1323 2.21354 14.1317 2.17241V1.55172C14.1323 1.5102 14.1242 1.46899 14.1081 1.43053C14.0919 1.39206 14.0678 1.35713 14.0374 1.32779C14.007 1.29846 13.9708 1.27532 13.931 1.25975C13.8911 1.24418 13.8485 1.23649 13.8055 1.23714ZM15.4114 1.23714C15.3263 1.23842 15.2452 1.27227 15.186 1.33125C15.1267 1.39023 15.0941 1.46952 15.0952 1.55172V2.17241C15.0946 2.21354 15.1025 2.25437 15.1183 2.29253C15.1342 2.33069 15.1578 2.36543 15.1877 2.39471C15.2175 2.424 15.2532 2.44726 15.2924 2.46313C15.3317 2.479 15.3738 2.48718 15.4164 2.48718C15.459 2.48718 15.5011 2.479 15.5404 2.46313C15.5796 2.44726 15.6152 2.424 15.6451 2.39471C15.675 2.36543 15.6986 2.33069 15.7144 2.29253C15.7303 2.25437 15.7382 2.21354 15.7376 2.17241V1.55172C15.7382 1.5102 15.7301 1.46899 15.7139 1.43053C15.6977 1.39206 15.6737 1.35713 15.6433 1.32779C15.6129 1.29846 15.5767 1.27532 15.5368 1.25975C15.497 1.24418 15.4543 1.23649 15.4114 1.23714ZM4.17532 3.72414C3.78702 3.72414 3.48042 4.07031 3.54113 4.4412L3.7864 5.94504C3.79834 6.01796 3.8368 6.08438 3.89485 6.13237C3.95291 6.18037 4.02678 6.20679 4.10318 6.2069H11.642L11.4902 7.44828H6.74471C6.65953 7.44828 6.57784 7.48098 6.51761 7.53918C6.45738 7.59738 6.42354 7.67631 6.42353 7.75862V9.62069C6.42354 9.703 6.45738 9.78193 6.51761 9.84013C6.57784 9.89833 6.65953 9.93103 6.74471 9.93103H11.1866L10.9645 11.7495L9.02805 12.3198L7.33561 11.7658L7.22333 11.076C7.17423 10.7766 6.90295 10.5517 6.58914 10.5517H5.28876C4.90011 10.5517 4.59389 10.898 4.65394 11.2688L4.97951 13.2672C5.01624 13.4927 5.18078 13.682 5.40544 13.7552L8.7947 14.8644C8.85962 14.8855 8.92892 14.8966 8.99731 14.8966C9.05938 14.8966 9.12117 14.8875 9.18111 14.8699L12.921 13.7691C13.1624 13.698 13.3391 13.4938 13.3683 13.2509L14.2967 5.65955L14.4491 4.41211C14.4932 4.05124 14.1922 3.72414 13.8162 3.72414H4.17532ZM4.17532 4.34483H13.8105L13.6587 5.58621L12.731 13.1757L8.99731 14.2753L5.6137 13.1678L5.28876 11.173L6.58914 11.1724L6.73153 12.0477C6.74071 12.1036 6.76555 12.1561 6.80337 12.1993C6.84118 12.2426 6.89053 12.2751 6.94607 12.2932L8.92015 12.9393C8.98367 12.9601 9.05233 12.9612 9.1165 12.9423L11.3522 12.2841C11.412 12.2666 11.4652 12.2326 11.5053 12.1863C11.5454 12.14 11.5707 12.0834 11.578 12.0234L11.8672 9.65706C11.8725 9.61351 11.8682 9.56937 11.8546 9.52754C11.8409 9.48571 11.8183 9.44715 11.7881 9.41439C11.758 9.38163 11.721 9.35542 11.6795 9.33749C11.6381 9.31956 11.5933 9.3103 11.5479 9.31034H7.06588V8.06896H11.7756C11.8543 8.06904 11.9303 8.04117 11.9892 7.99067C12.048 7.94016 12.0856 7.87053 12.0949 7.79499L12.3226 5.93292C12.3279 5.88937 12.3236 5.84523 12.31 5.8034C12.2964 5.76158 12.2737 5.72301 12.2435 5.69025C12.2134 5.6575 12.1764 5.63129 12.135 5.61335C12.0935 5.59542 12.0487 5.58617 12.0033 5.58621H4.37793L4.17532 4.34483ZM12.2065 14.9772C12.1775 14.9774 12.1485 14.9815 12.1206 14.9893L11.4783 15.1572C11.4365 15.1669 11.3972 15.1847 11.3627 15.2093C11.3282 15.234 11.2991 15.2651 11.2772 15.3008C11.2554 15.3365 11.2411 15.3761 11.2354 15.4172C11.2296 15.4583 11.2324 15.5001 11.2436 15.5402C11.2549 15.5802 11.2743 15.6177 11.3008 15.6503C11.3273 15.683 11.3603 15.7102 11.3978 15.7303C11.4354 15.7504 11.4767 15.7631 11.5194 15.7675C11.5621 15.7719 11.6053 15.768 11.6464 15.7561L12.2887 15.5882C12.3647 15.5693 12.4309 15.5243 12.4748 15.4615C12.5188 15.3988 12.5375 15.3227 12.5274 15.2475C12.5172 15.1724 12.479 15.1034 12.4199 15.0536C12.3609 15.0038 12.2849 14.9766 12.2065 14.9772ZM7.37953 15.3724C7.3021 15.3734 7.22765 15.4013 7.16988 15.4512C7.11211 15.501 7.07492 15.5693 7.06514 15.6435C7.05537 15.7178 7.07367 15.7929 7.11669 15.8551C7.1597 15.9173 7.22453 15.9625 7.29923 15.9822L9.00045 16.4489L10.3617 16.0925C10.4034 16.0827 10.4427 16.065 10.4772 16.0403C10.5117 16.0157 10.5408 15.9846 10.5627 15.9489C10.5845 15.9132 10.5988 15.8736 10.6046 15.8325C10.6103 15.7914 10.6075 15.7496 10.5963 15.7095C10.585 15.6695 10.5656 15.632 10.5391 15.5994C10.5126 15.5667 10.4797 15.5395 10.4421 15.5194C10.4046 15.4992 10.3632 15.4866 10.3205 15.4822C10.2778 15.4777 10.2347 15.4816 10.1936 15.4936L9.00484 15.8052L7.47487 15.3851C7.44393 15.3763 7.41179 15.372 7.37953 15.3724Z" fill="#0096DC"/>
</svg>
