<svg width="18" height="18" viewBox="0 0 18 18" fill="none" xmlns="http://www.w3.org/2000/svg">
<path d="M11.0639 0.000119749C10.9969 -0.00147699 10.9298 0.0128945 10.8691 0.0432345C10.612 0.170982 10.4475 0.359409 10.299 0.523883C10.1521 0.688358 10.0419 0.835268 10.0419 0.835268C10.0372 0.841655 10.0324 0.848042 10.0292 0.85443C9.62357 1.46442 9.42397 2.15905 9.41599 2.85846C9.41119 3.3966 9.51978 3.93793 9.73056 4.44732C10.2463 5.68487 11.2827 6.64138 12.5011 7.09808H12.5027C12.5586 7.12043 12.6081 7.138 12.648 7.15237C12.6544 7.15397 12.6608 7.15556 12.6672 7.15876C12.6751 7.16035 12.6927 7.16674 12.723 7.17473C12.7693 7.19069 12.8476 7.22263 12.9626 7.24499C13.2963 7.31205 13.6077 7.34718 13.8999 7.35677C15.1934 7.39669 16.0892 6.89847 16.6481 6.35395C16.9275 6.08089 17.1271 5.79825 17.2677 5.5683C17.4098 5.33836 17.5184 5.13077 17.52 5.12917H17.5215C17.6445 4.94234 17.595 4.69164 17.4114 4.56549C17.2261 4.43934 16.9738 4.48565 16.8445 4.66928C16.5283 5.13396 16.1355 5.40063 15.6341 5.52998C15.1327 5.65932 14.5163 5.64016 13.8089 5.46451C13.7131 5.44056 13.5949 5.40223 13.4879 5.36231C13.4879 5.36231 13.4863 5.36231 13.4847 5.36071C13.3554 5.31441 13.2229 5.25852 13.0935 5.19624L13.0919 5.19464L13.0887 5.19305C12.8476 5.07328 12.6145 4.92957 12.4021 4.7635C11.8144 4.3068 11.3577 3.55948 11.1629 2.77862C10.9681 1.99777 11.0352 1.20254 11.3977 0.626081C11.4759 0.501528 11.4807 0.345037 11.412 0.215693C11.3434 0.0863494 11.2108 0.00491037 11.0639 0.000119749ZM7.37043 0.817702C7.27622 0.817702 7.1852 0.851236 7.11334 0.910319C6.45864 1.44366 5.83587 2.27242 5.83587 2.27242C5.83108 2.27721 5.82788 2.2836 5.82469 2.28999C4.61428 4.04971 4.68934 6.36353 5.61071 8.18872C5.76241 8.49052 5.93487 8.78434 6.12809 9.06379C6.12969 9.06538 6.12969 9.06538 6.12969 9.06538C6.28139 9.28894 6.46502 9.58116 6.7301 9.82548C6.81633 9.92448 6.90575 10.0171 6.99517 10.1049C7.01593 10.1273 7.03829 10.1496 7.05905 10.1704C7.06064 10.1736 7.06384 10.1752 7.06384 10.1752C7.14847 10.2582 7.2363 10.3413 7.32732 10.4227L7.32891 10.4243C7.33211 10.4275 7.3369 10.4323 7.34009 10.4355L7.34648 10.4387C7.35127 10.4451 7.35766 10.4498 7.36404 10.4546C7.45985 10.5409 7.55726 10.6223 7.65786 10.7005C7.66265 10.7053 7.66585 10.7085 7.67064 10.7117C7.67064 10.7117 7.69299 10.7309 7.7393 10.7644C7.8415 10.8443 7.94529 10.9209 8.04749 10.9944C8.06027 11.0039 8.07464 11.0135 8.08741 11.0199C8.09699 11.0263 8.10338 11.0311 8.11137 11.0375H8.11296C8.14969 11.063 8.18642 11.087 8.21676 11.1077C8.22634 11.1141 8.24869 11.1301 8.28542 11.1541C8.36526 11.2067 8.44351 11.2547 8.52495 11.3042C8.53293 11.3089 8.54251 11.3137 8.5505 11.3185C8.5505 11.3185 8.56327 11.3249 8.57764 11.3313C8.58084 11.3345 8.58084 11.3329 8.58563 11.3361C8.6495 11.3744 8.71497 11.4127 8.78364 11.4479C8.80759 11.4622 8.83633 11.4766 8.84432 11.4814C8.84911 11.4846 8.8539 11.4862 8.85869 11.4894C8.90021 11.5101 8.94492 11.5341 8.99123 11.5596C9.03115 11.5804 9.04232 11.582 9.03913 11.582C9.14133 11.6315 9.23873 11.6762 9.32975 11.7193C9.33614 11.7209 9.34253 11.7241 9.35051 11.7273C9.36968 11.7353 9.38564 11.7417 9.4064 11.7513C9.48784 11.7848 9.57248 11.8231 9.6619 11.8567C9.66669 11.8583 9.67308 11.8615 9.67787 11.863C9.69543 11.8694 9.72577 11.8806 9.77208 11.8982L9.77368 11.8998C9.85033 11.9269 9.92857 11.9525 10.0052 11.978C10.0451 11.9924 10.0803 12.0036 10.1106 12.0147H10.1122C10.1968 12.0419 10.323 12.0946 10.4939 12.1233C10.4939 12.1233 10.4939 12.1217 10.4954 12.1233C11.1406 12.2303 11.7362 12.2734 12.2855 12.2623C14.5323 12.2128 15.9886 11.2227 16.8429 10.2486C17.6956 9.27457 17.983 8.29092 17.983 8.29092C18.0405 8.0977 17.9479 7.8933 17.7659 7.80707C17.5854 7.72084 17.3683 7.77993 17.2533 7.946C16.1674 9.53326 14.0564 10.3492 11.7474 9.74085C11.6452 9.7153 11.5462 9.68656 11.4488 9.65302C11.4424 9.65143 11.4344 9.64823 11.4264 9.64663C11.412 9.64344 11.3929 9.63705 11.3593 9.62588C11.3561 9.62428 11.353 9.62268 11.3514 9.62109C11.2763 9.59713 11.206 9.57478 11.1422 9.54923H11.1406C11.1038 9.53486 11.0719 9.52368 11.0448 9.5125C10.9633 9.48056 10.8867 9.45022 10.8212 9.42148C10.8164 9.41829 10.8132 9.41669 10.8084 9.41509C10.7733 9.40072 10.7573 9.39274 10.7797 9.40391C10.7701 9.39912 10.7605 9.39593 10.7509 9.39114C10.6615 9.35122 10.5689 9.3081 10.4763 9.2618L10.4699 9.2602C10.4699 9.2602 10.4683 9.2586 10.4667 9.25701C10.4204 9.23305 10.3757 9.2107 10.3294 9.18515C10.3294 9.18515 10.3262 9.18355 10.323 9.18355C10.2942 9.16758 10.2671 9.15321 10.2431 9.14044V9.14203C10.1905 9.11489 10.1362 9.08135 10.0723 9.04303C10.0675 9.04143 10.0643 9.03983 10.0611 9.03824C10.0419 9.02706 10.0356 9.02387 10.0324 9.02067H10.0308L10.0276 9.01908C9.94933 8.97117 9.87588 8.92646 9.81839 8.88654C9.8104 8.88175 9.80082 8.87696 9.79284 8.87217C9.79923 8.87536 9.78166 8.86259 9.74014 8.83544C9.69703 8.80829 9.65232 8.77955 9.60441 8.74602H9.60281C9.60122 8.74442 9.59962 8.74282 9.59643 8.74282C9.507 8.67735 9.41439 8.60709 9.32017 8.53523L9.31219 8.52725C9.28983 8.50968 9.27067 8.49531 9.2579 8.48413C9.2547 8.48254 9.25151 8.47934 9.24832 8.47615C8.22953 7.66336 7.42792 6.55036 7.05106 5.30642V5.30482C6.67261 4.08005 7.06224 2.57582 7.72493 1.43089C7.79839 1.30474 7.79839 1.14825 7.72493 1.0205C7.65148 0.894351 7.51574 0.817702 7.37043 0.817702ZM2.87692 2.04408C2.77632 2.04408 2.67732 2.0808 2.60227 2.14947C2.57991 2.16863 2.56873 2.18939 2.54638 2.21015C1.75275 2.94469 1.18746 3.83892 1.17629 3.85809C-0.468459 6.24856 -0.249692 9.9165 0.978278 12.3932V12.398C1.01022 12.4651 1.04215 12.5241 1.0677 12.5704C1.08048 12.5992 1.09485 12.6263 1.10922 12.6535C1.13956 12.7221 1.16192 12.7509 1.16511 12.7557C1.18427 12.7924 1.20343 12.8291 1.2178 12.8563C1.2194 12.8595 1.22259 12.8643 1.22419 12.8675C1.26092 12.9265 1.29605 12.992 1.33597 13.0575C1.33597 13.0575 1.33757 13.0607 1.33916 13.0623C1.35673 13.091 1.37909 13.1325 1.41422 13.1836C1.45893 13.2571 1.50045 13.3226 1.53079 13.3705C1.53238 13.3737 1.53398 13.3769 1.53398 13.3769C1.54995 13.4008 1.56911 13.4327 1.59306 13.4663C1.59466 13.4695 1.59626 13.4711 1.59785 13.4727C1.59945 13.4759 1.59945 13.4775 1.60264 13.4822C1.65853 13.5669 1.71762 13.6547 1.78309 13.7457C1.78947 13.7537 1.78788 13.7505 1.79267 13.7585C1.79746 13.7649 1.79746 13.7649 1.80065 13.7697C1.80225 13.7713 1.80544 13.7761 1.80704 13.7793L1.80864 13.7809C1.81183 13.7856 1.8246 13.8016 1.8246 13.8016L1.8278 13.8048C1.88528 13.8846 1.94437 13.9661 2.00664 14.0459C2.0306 14.0779 2.05136 14.105 2.06253 14.1194C2.06573 14.1242 2.07052 14.129 2.07371 14.1354C2.12641 14.1976 2.17751 14.2615 2.2302 14.327C2.2318 14.3302 2.2334 14.3318 2.23499 14.3334C2.25096 14.3525 2.27172 14.3765 2.29408 14.4036C2.36274 14.4867 2.433 14.5665 2.50486 14.6463C2.51125 14.6527 2.51763 14.6607 2.52402 14.6671L2.52083 14.6623C2.54159 14.6863 2.57831 14.7262 2.61504 14.7501L2.53839 14.6847C2.61344 14.7677 2.69009 14.8491 2.76674 14.9306C2.76834 14.9322 2.76993 14.9338 2.76993 14.9338C2.79708 14.9609 2.82423 14.9881 2.85297 15.0168C2.90726 15.0711 2.96475 15.1302 3.03182 15.1941C3.05737 15.218 3.08291 15.2404 3.10048 15.2595C3.10208 15.2611 3.10367 15.2611 3.10367 15.2611C3.17713 15.3314 3.25697 15.4064 3.3416 15.4815C3.34959 15.4863 3.35438 15.4927 3.36076 15.4975V15.4991C3.38312 15.5182 3.3959 15.5294 3.3927 15.5262C3.39749 15.5294 3.40069 15.5342 3.40548 15.5374C3.48053 15.6029 3.55558 15.6667 3.63063 15.7306C3.66736 15.7593 3.6993 15.7849 3.72644 15.8088H3.72964C3.7967 15.8647 3.86058 15.9126 3.92126 15.9589L3.92285 15.9621C3.95319 15.9845 3.98513 16.0084 4.02026 16.0356C4.02186 16.0372 4.02345 16.0372 4.02505 16.0388C4.09691 16.0931 4.16877 16.1442 4.23743 16.1937C4.25819 16.2097 4.28214 16.2256 4.30769 16.2432C4.30609 16.2416 4.31568 16.2496 4.31248 16.248C4.32366 16.256 4.33484 16.2639 4.34442 16.2703C4.41149 16.315 4.47696 16.3598 4.54562 16.4045L4.54722 16.4061C4.57756 16.4252 4.6047 16.4444 4.63185 16.462C4.63345 16.4635 4.63504 16.4651 4.63824 16.4667C4.74682 16.537 4.85381 16.6025 4.9592 16.6663C4.96559 16.6711 4.97198 16.6743 4.97836 16.6775C5.00391 16.6919 5.02787 16.7047 5.05022 16.7174C5.05182 16.719 5.05182 16.719 5.05342 16.7206C5.13486 16.7669 5.21629 16.8149 5.30252 16.8612L5.29454 16.8564C5.35202 16.8883 5.40312 16.9123 5.44464 16.933C5.49574 16.9618 5.55003 16.9921 5.60752 17.0208C5.6155 17.0256 5.62509 17.0304 5.63467 17.0352C5.66501 17.0464 5.66501 17.0496 5.63307 17.0304C5.64425 17.0384 5.65542 17.0432 5.6666 17.048C5.67139 17.0512 5.68896 17.0592 5.7193 17.0751H5.72249C5.81671 17.123 5.90932 17.1662 6.00513 17.2077C6.02749 17.2189 6.04186 17.2252 6.03707 17.222C6.04665 17.2268 6.05464 17.2316 6.06262 17.2348C6.16961 17.2827 6.27819 17.3274 6.38837 17.3721L6.39476 17.3737C6.40115 17.3753 6.43309 17.3897 6.46502 17.4009C6.47141 17.4041 6.4778 17.4057 6.48418 17.4073C6.48738 17.4089 6.48578 17.4089 6.48898 17.4105C6.5768 17.444 6.66463 17.4775 6.75245 17.5079C6.77641 17.5191 6.79717 17.5254 6.81154 17.5318C6.92651 17.5702 7.03829 17.6069 7.15326 17.642C7.15646 17.6436 7.15965 17.6452 7.16444 17.6468C7.17083 17.6484 7.20117 17.658 7.2347 17.6676L7.23949 17.6692C7.24748 17.6708 7.24588 17.6708 7.25386 17.674C7.35127 17.7043 7.46624 17.7474 7.61634 17.7762H7.61954C8.40838 17.9215 9.14133 17.9869 9.82478 17.9869C15.6852 17.9885 17.5647 13.2268 17.5647 13.2268C17.6365 13.0367 17.5583 12.8228 17.381 12.7237C17.2038 12.6263 16.9802 12.6726 16.8573 12.8339C15.1886 15.028 12.1961 15.4719 9.27706 14.8012C9.18923 14.7805 9.08544 14.7485 8.96568 14.7118L8.95929 14.7102C8.93853 14.7038 8.91617 14.6974 8.905 14.6927C8.89861 14.6911 8.89222 14.6895 8.88583 14.6879C8.78364 14.6559 8.67984 14.6208 8.57605 14.5857C8.57445 14.5841 8.57126 14.5841 8.56806 14.5825C8.56167 14.5809 8.55529 14.5793 8.5505 14.5761C8.54411 14.5745 8.53772 14.5713 8.52974 14.5697C8.4499 14.541 8.36367 14.509 8.27424 14.4739L8.25987 14.4675C8.22474 14.4547 8.1944 14.4435 8.18163 14.4372C8.08582 14.3988 7.98681 14.3573 7.8894 14.3142C7.87982 14.3094 7.87184 14.3062 7.86386 14.303C7.86386 14.303 7.84469 14.295 7.83192 14.2902C7.74729 14.2503 7.66425 14.2104 7.57802 14.1689C7.57163 14.1673 7.56684 14.1641 7.56046 14.1609C7.55566 14.1593 7.54129 14.1529 7.51255 14.137C7.50936 14.1354 7.50616 14.1338 7.50137 14.1322C7.44548 14.105 7.38321 14.0731 7.31933 14.0379C7.31774 14.0363 7.31454 14.0348 7.31295 14.0332C7.26185 14.0076 7.22193 13.9884 7.19318 13.9709C7.18999 13.9709 7.18839 13.9693 7.1852 13.9677C7.11015 13.9278 7.0319 13.8815 6.94887 13.8351L6.9808 13.8543C6.92651 13.8192 6.88819 13.8 6.86583 13.7872L6.8786 13.7936C6.77481 13.7314 6.67261 13.6691 6.5752 13.6068C6.57361 13.6052 6.57201 13.6036 6.57201 13.6036C6.55285 13.5924 6.53049 13.5781 6.50335 13.5589C6.49856 13.5541 6.49217 13.5509 6.48738 13.5477C6.42031 13.5046 6.35165 13.4567 6.27979 13.4088L6.275 13.4056C6.26063 13.3944 6.23827 13.3785 6.20793 13.3561C6.14406 13.3114 6.08018 13.2651 6.01471 13.2156H6.01152C6.00833 13.2124 6.00673 13.2108 6.00354 13.2076C5.97799 13.1868 5.94924 13.1661 5.9205 13.1437C5.85663 13.0942 5.79595 13.0479 5.74165 13.0032L5.73367 12.9984C5.70173 12.9713 5.67299 12.9473 5.65223 12.9297C5.65223 12.9297 5.65063 12.9297 5.64904 12.9281C5.57399 12.8675 5.50213 12.8036 5.42388 12.7365L5.45742 12.7701C5.39195 12.6966 5.36161 12.687 5.37757 12.6982L5.39993 12.7174C5.32169 12.6471 5.24184 12.572 5.1604 12.4954L5.15561 12.4922C5.14284 12.4794 5.12208 12.4587 5.09493 12.4331L5.08376 12.4219C5.02467 12.3645 4.97038 12.3102 4.92088 12.2607C4.91928 12.2591 4.91928 12.2591 4.91768 12.2575C4.89533 12.2351 4.87457 12.2128 4.84902 12.1872C4.77876 12.1169 4.7101 12.0419 4.64143 11.9652C4.63824 11.9621 4.63345 11.9573 4.63025 11.9525H4.62866C4.5568 11.8742 4.48654 11.7928 4.41468 11.7082C4.41468 11.7082 4.41468 11.705 4.41308 11.7034C4.40191 11.6906 4.38274 11.6666 4.3524 11.6315C4.3029 11.5708 4.2534 11.507 4.19911 11.4415L4.19751 11.4399C4.17994 11.4159 4.16078 11.3904 4.1496 11.376L4.14801 11.3744C4.08733 11.2946 4.02984 11.2163 3.97235 11.1365L3.97076 11.1349C3.20108 10.0746 2.66933 8.35958 2.52083 6.70845C2.37072 5.05891 2.62782 3.47484 3.20268 2.69559C3.29529 2.57263 3.30967 2.40816 3.241 2.27083C3.17234 2.1319 3.03182 2.04567 2.87692 2.04408ZM10.3166 2.30915C10.339 2.53271 10.315 2.75786 10.3693 2.97663C10.6072 3.92356 11.139 4.81779 11.9007 5.41022C12.161 5.61142 12.4404 5.78547 12.7294 5.92759C12.731 5.92919 12.7342 5.93079 12.7342 5.93079C12.8875 6.00424 13.0456 6.07131 13.2069 6.13039L13.2037 6.12879C13.3282 6.1751 13.4688 6.22301 13.6109 6.25814C13.9798 6.34916 14.3358 6.39706 14.6808 6.41623C14.438 6.46573 14.2352 6.54876 13.9255 6.53918C13.6827 6.5312 13.4145 6.50086 13.1223 6.44337H13.1207C13.1015 6.44018 13.052 6.42102 12.9674 6.39547C12.9578 6.39227 12.9386 6.38589 12.9179 6.3795C12.8684 6.36193 12.8284 6.34916 12.7981 6.33638C12.7949 6.33479 12.7933 6.33479 12.7901 6.33319C11.7809 5.95474 10.9074 5.14674 10.4859 4.13274C10.315 3.72076 10.2288 3.28961 10.2336 2.86645C10.2352 2.67642 10.2799 2.49279 10.3166 2.30915ZM6.16162 3.46207C6.05783 4.1535 6.05943 4.8625 6.26861 5.54435C6.69976 6.96554 7.60038 8.20628 8.73892 9.11489C8.76288 9.13565 8.78683 9.15481 8.8028 9.16918C8.80599 9.17078 8.80918 9.17397 8.81238 9.17557C8.91458 9.25541 9.02156 9.33685 9.13334 9.41509C9.13494 9.41669 9.13813 9.41829 9.14133 9.41988C9.19243 9.45501 9.24353 9.48855 9.29942 9.52368V9.52527C9.30261 9.52687 9.33135 9.54923 9.38564 9.58116C9.46229 9.63067 9.53894 9.67697 9.60281 9.7169C9.60601 9.71849 9.60761 9.72009 9.6092 9.72169C9.63795 9.73765 9.65711 9.74883 9.66509 9.75203C9.72258 9.78716 9.78645 9.82548 9.8631 9.8654V9.867C9.89344 9.88137 9.92378 9.89734 9.95412 9.91171C10.0036 9.93726 10.0515 9.96281 10.0994 9.98836C10.1026 9.98996 10.1058 9.99155 10.1106 9.99315C10.2 10.0379 10.2958 10.0826 10.3948 10.1257C10.4475 10.1528 10.4699 10.1608 10.4843 10.1656C10.5769 10.2071 10.6647 10.2407 10.7446 10.2726C10.7845 10.2886 10.8228 10.3029 10.8531 10.3157L10.8515 10.3141C10.9362 10.3461 11.0192 10.3732 11.0975 10.3987C11.1214 10.4083 11.1549 10.4179 11.1917 10.4291C11.305 10.4674 11.4216 10.5025 11.5398 10.5329C13.0727 10.9369 14.5339 10.7293 15.7682 10.1496C15.0177 10.8219 13.9287 11.4079 12.2679 11.4447C11.7729 11.4559 11.2284 11.4175 10.628 11.3169C10.6264 11.3153 10.6232 11.3153 10.6232 11.3153C10.5737 11.3073 10.4875 11.2754 10.3629 11.2355C10.3278 11.2259 10.2974 11.2147 10.2655 11.2036C10.1952 11.1812 10.1234 11.1556 10.0531 11.1301L10.0499 11.1285C10.0324 11.1221 9.99723 11.1093 9.95572 11.095L9.94614 11.0902C9.94294 11.0886 9.94294 11.0886 9.93975 11.0886C9.87268 11.0614 9.80242 11.0311 9.72897 10.9992H9.72737C9.70661 10.9896 9.68585 10.98 9.6619 10.972C9.56609 10.9273 9.47507 10.8858 9.39044 10.8427C9.38564 10.8411 9.38085 10.8395 9.37606 10.8379C9.33455 10.8139 9.28824 10.79 9.23874 10.766L9.23394 10.7628C9.23075 10.7612 9.22915 10.7596 9.22596 10.758C9.2068 10.7485 9.18604 10.7373 9.18604 10.7373C9.17646 10.7309 9.16688 10.7261 9.15889 10.7213C9.09981 10.691 9.03913 10.6558 8.98164 10.6207C8.97047 10.6143 8.96089 10.6095 8.94971 10.6031C8.94971 10.6031 8.94013 10.5984 8.93534 10.5968C8.86507 10.5536 8.79801 10.5121 8.72934 10.4674C8.72775 10.4658 8.72615 10.4642 8.72455 10.4626C8.71816 10.4594 8.69741 10.4451 8.66228 10.4227C8.61118 10.3892 8.56966 10.362 8.53772 10.3397C8.52814 10.3317 8.51696 10.3253 8.50579 10.3173C8.50579 10.3173 8.50419 10.3173 8.50259 10.3157C8.40998 10.2486 8.31896 10.1816 8.23273 10.1129C8.22794 10.1097 8.22314 10.1065 8.21995 10.1033C8.21835 10.1017 8.1944 10.0826 8.16406 10.0586C8.07304 9.98676 7.98681 9.9149 7.90218 9.83985C7.90058 9.83826 7.90058 9.83826 7.89899 9.83666C7.89579 9.83347 7.891 9.83027 7.88781 9.82708C7.88621 9.82548 7.88302 9.82388 7.88142 9.82229C7.87823 9.81909 7.87663 9.8175 7.87503 9.8159C7.79519 9.74404 7.71695 9.67059 7.6387 9.59394L7.63391 9.58915C7.61315 9.56839 7.59399 9.54923 7.57642 9.53006L7.57323 9.52847C7.4886 9.44384 7.41195 9.36399 7.34488 9.28575C7.33211 9.27138 7.31933 9.2586 7.30496 9.24742C7.14847 9.1101 6.97442 8.85141 6.80355 8.6023C6.80196 8.6007 6.80196 8.59911 6.80196 8.59911C6.6295 8.35319 6.4762 8.09291 6.34207 7.82304V7.81985C5.65702 6.46732 5.566 4.83056 6.16162 3.46207ZM1.75913 4.52876C1.66811 5.24255 1.63618 5.99945 1.70644 6.7835C1.86612 8.5512 2.40426 10.3684 3.30967 11.6139C3.37194 11.7034 3.43582 11.788 3.50129 11.8742C3.52524 11.9062 3.54121 11.9253 3.546 11.9317C3.55239 11.9413 3.55877 11.9509 3.56676 11.9589C3.61786 12.0227 3.67055 12.0882 3.72484 12.1569C3.72964 12.1617 3.73283 12.1649 3.73762 12.1696C3.7472 12.1808 3.76477 12.2048 3.79351 12.2383C3.86696 12.3245 3.94361 12.414 4.02345 12.5018C4.02665 12.505 4.02984 12.5098 4.03303 12.513C4.10809 12.596 4.18633 12.679 4.26617 12.7605C4.28693 12.7812 4.30929 12.8052 4.33643 12.8323C4.33803 12.8339 4.33803 12.8339 4.33803 12.8339L4.33963 12.8355C4.4035 12.8994 4.46258 12.9585 4.51847 13.0128C4.52167 13.016 4.52646 13.0208 4.52965 13.024C4.54243 13.0351 4.56159 13.0559 4.59512 13.0878C4.59672 13.0894 4.59832 13.0894 4.59991 13.091C4.68135 13.1677 4.76598 13.2475 4.85381 13.3242C4.8602 13.3321 4.86818 13.3385 4.87617 13.3449C4.9097 13.3705 4.90172 13.3737 4.85062 13.3178C4.8618 13.3289 4.87297 13.3401 4.88415 13.3497C4.96399 13.4216 5.04543 13.4918 5.13485 13.5637C5.16679 13.5892 5.19234 13.61 5.2115 13.626C5.2131 13.6276 5.21629 13.6308 5.21789 13.6323C5.28655 13.6882 5.35203 13.7377 5.41271 13.7856C5.4175 13.7904 5.42229 13.7936 5.42548 13.7968C5.45263 13.8144 5.47818 13.8351 5.50692 13.8559C5.51011 13.8607 5.51331 13.8639 5.5181 13.8671C5.58995 13.9182 5.66022 13.9709 5.73686 14.0252C5.75283 14.0363 5.77678 14.0555 5.80712 14.0779C5.80712 14.0779 5.81032 14.0795 5.81351 14.0795C5.88697 14.1306 5.96521 14.1849 6.04984 14.2376C6.0722 14.2535 6.09775 14.2727 6.13128 14.2934C6.13288 14.295 6.13448 14.295 6.13448 14.295C6.24306 14.3653 6.35165 14.4324 6.45704 14.4946C6.46023 14.4962 6.46343 14.4994 6.46822 14.501C6.50335 14.5202 6.51932 14.5298 6.51612 14.5282C6.5257 14.5346 6.53688 14.5425 6.54806 14.5489C6.62471 14.5905 6.70455 14.6368 6.78918 14.6831L6.79078 14.6847C6.79078 14.6847 6.79397 14.6863 6.79717 14.6863C6.84986 14.7166 6.89777 14.7406 6.93769 14.7613C6.99996 14.7948 7.06703 14.83 7.13729 14.8635C7.13889 14.8651 7.14368 14.8683 7.14368 14.8683C7.14687 14.8683 7.14687 14.8683 7.14847 14.8699C7.17242 14.8811 7.19957 14.897 7.24268 14.9146C7.32253 14.9545 7.40397 14.9929 7.4886 15.0312C7.49499 15.0344 7.50137 15.0376 7.50776 15.0408C7.50776 15.0408 7.5365 15.0519 7.55726 15.0615C7.65946 15.1062 7.76804 15.1525 7.88142 15.1973L7.88302 15.1988C7.91974 15.2132 7.9421 15.2212 7.94689 15.2228C7.95328 15.226 7.95807 15.2276 7.96446 15.2292C8.05867 15.2675 8.15767 15.3058 8.26307 15.3426C8.28063 15.349 8.29979 15.3553 8.31736 15.3617C8.41796 15.3969 8.52175 15.4304 8.62874 15.4639C8.67026 15.4783 8.70699 15.4879 8.73892 15.4975C8.84432 15.5294 8.96088 15.5677 9.09502 15.5981C11.2587 16.0963 13.5231 15.9701 15.3626 15.0344C14.2991 16.0995 12.5554 17.1693 9.82478 17.1693C9.19402 17.1693 8.51058 17.1087 7.76804 16.9713C7.69459 16.957 7.60038 16.925 7.47423 16.8867C7.46784 16.8835 7.46145 16.8819 7.45506 16.8803C7.45506 16.8803 7.42792 16.8723 7.39758 16.8628L7.3848 16.8596C7.28261 16.8276 7.182 16.7941 7.07981 16.759C7.07661 16.7574 7.07502 16.7574 7.07182 16.7558C7.06064 16.7526 7.06384 16.7542 7.06703 16.7542C7.06224 16.7526 7.05585 16.7494 7.05106 16.7478C6.95366 16.7127 6.85625 16.6759 6.76523 16.6408C6.75884 16.6376 6.75086 16.636 6.74287 16.6328C6.74607 16.6344 6.72371 16.6248 6.69018 16.6121L6.68379 16.6089C6.58479 16.5689 6.48898 16.529 6.39157 16.4859C6.37241 16.4779 6.34686 16.4651 6.34366 16.4651C6.34207 16.4635 6.33887 16.462 6.33887 16.462C6.24945 16.422 6.16641 16.3837 6.08657 16.3438H6.08338C6.07699 16.339 6.05304 16.3278 6.03707 16.3198C6.00034 16.2991 5.99555 16.2991 5.98278 16.2943L5.97639 16.2927C5.92529 16.2655 5.87419 16.2384 5.82469 16.2112C5.8199 16.2081 5.81511 16.2049 5.81032 16.2033C5.76241 16.1793 5.72569 16.1601 5.69694 16.1442C5.69535 16.1426 5.69056 16.141 5.69056 16.141C5.6171 16.1011 5.54365 16.0595 5.47019 16.0164L5.467 16.0148C5.43506 15.9957 5.40472 15.9781 5.37278 15.9621L5.3648 15.9558C5.26899 15.8983 5.17478 15.8392 5.08056 15.7785C5.05342 15.7593 5.02627 15.7434 4.99912 15.7258L4.99753 15.7242H4.99593C4.93365 15.6811 4.87297 15.6396 4.8075 15.5965C4.79792 15.5885 4.78674 15.5805 4.77557 15.5725C4.7596 15.5629 4.74044 15.5486 4.71808 15.5326C4.71648 15.531 4.71489 15.5294 4.71329 15.5278C4.64622 15.4815 4.58075 15.4336 4.51847 15.3873L4.51688 15.3857H4.51528C4.48494 15.3617 4.4546 15.3378 4.42107 15.3122L4.41947 15.3106C4.3556 15.2627 4.29651 15.218 4.24222 15.1733L4.24062 15.1717C4.20869 15.1462 4.18154 15.1254 4.15918 15.1062L4.15759 15.1046C4.08413 15.0424 4.01228 14.9801 3.94042 14.9194C3.93084 14.9098 3.92285 14.9034 3.91647 14.9002C3.91008 14.8923 3.90209 14.8859 3.89571 14.8795C3.82225 14.8172 3.7472 14.7453 3.66896 14.6719L3.66736 14.6687C3.64021 14.6431 3.61626 14.6224 3.5955 14.6016C3.5939 14.6 3.59231 14.5984 3.59071 14.5968C3.53961 14.5489 3.48692 14.493 3.42783 14.434C3.42464 14.4308 3.42145 14.4276 3.41825 14.4228C3.3959 14.402 3.37673 14.3845 3.35757 14.3653C3.28571 14.2886 3.21545 14.2136 3.14519 14.137C3.14359 14.1354 3.142 14.1338 3.142 14.1338C3.1388 14.129 3.13561 14.1258 3.13082 14.1226C3.06056 14.0427 2.99189 13.9645 2.92642 13.8846C2.92323 13.8815 2.92004 13.8783 2.91684 13.8735C2.90407 13.8591 2.8865 13.8383 2.86734 13.816L2.86574 13.8144C2.86574 13.8144 2.86415 13.8112 2.86255 13.8096C2.81305 13.7473 2.76035 13.6819 2.70606 13.6164C2.6869 13.5908 2.66933 13.5669 2.66135 13.5541C2.65656 13.5493 2.65336 13.5445 2.65017 13.5413C2.59747 13.4727 2.54478 13.404 2.49208 13.3305L2.48889 13.3258C2.47452 13.305 2.46494 13.2938 2.46973 13.3002C2.46653 13.2954 2.46334 13.2906 2.46015 13.2858C2.45695 13.281 2.45376 13.2779 2.45057 13.2731C2.44897 13.2715 2.44737 13.2683 2.44578 13.2667H2.44418C2.38989 13.19 2.33559 13.1086 2.27811 13.0224C2.27651 13.0176 2.27332 13.0128 2.26853 13.008C2.25894 12.9936 2.24617 12.9729 2.2302 12.9473L2.22541 12.9409C2.17751 12.8627 2.13439 12.7988 2.10565 12.7493C2.10245 12.7429 2.09766 12.7349 2.09287 12.7285C2.0801 12.7094 2.06413 12.6806 2.04018 12.6423L2.03858 12.6391C2.00505 12.5832 1.96992 12.5241 1.93319 12.4619V12.4587C1.93 12.4555 1.93 12.4539 1.9268 12.4507C1.91083 12.4187 1.89646 12.3916 1.88528 12.3692C1.88049 12.3597 1.8757 12.3517 1.86932 12.3421C1.85175 12.3102 1.84536 12.2958 1.85973 12.3261C1.85335 12.3118 1.84696 12.299 1.84057 12.2878C1.8262 12.2623 1.81183 12.2383 1.80225 12.2128C1.79905 12.2064 1.79586 12.2 1.79267 12.1936C1.76073 12.1329 1.73518 12.085 1.71602 12.0467C1.71442 12.0419 1.71283 12.0371 1.71123 12.0339C0.646136 9.88616 0.496033 6.57591 1.75913 4.52876ZM7.91016 9.85422L7.91495 9.85582C7.92134 9.8654 7.91975 9.86221 7.92773 9.87498C7.92294 9.867 7.91655 9.86061 7.91016 9.85422ZM3.14839 14.1465C3.14839 14.1465 3.15318 14.1513 3.15477 14.1529C3.15956 14.1577 3.15797 14.1561 3.16276 14.1625L3.16435 14.1641V14.1657C3.16755 14.1673 3.16914 14.1721 3.17074 14.1753C3.15797 14.1577 3.15318 14.1513 3.14839 14.1465ZM4.81549 15.6044L4.82986 15.6124C4.80112 15.5917 4.80271 15.5901 4.82986 15.6156C4.82507 15.6108 4.82028 15.6076 4.81549 15.6044Z" fill="#0669AB"/>
</svg>
