<svg width="20" height="23" viewBox="0 0 20 23" fill="none" xmlns="http://www.w3.org/2000/svg">
<path d="M10 22.4583C9.68944 22.4583 9.39959 22.3757 9.13043 22.2313L6.37681 20.6013C5.96273 20.3744 6.16977 20.2919 6.294 20.2506C6.853 20.0649 6.95652 20.0236 7.53623 19.6935C7.59834 19.6523 7.68116 19.6729 7.74327 19.7142L9.85507 20.9727C9.93789 21.014 10.0414 21.014 10.1035 20.9727L18.3644 16.2067C18.4472 16.1654 18.4886 16.0829 18.4886 15.9797V6.46822C18.4886 6.36506 18.4472 6.28253 18.3644 6.24127L10.1035 1.49584C10.0207 1.45458 9.91718 1.45458 9.85507 1.49584L1.5942 6.24127C1.51139 6.28253 1.46998 6.3857 1.46998 6.46822V15.9797C1.46998 16.0622 1.51139 16.1654 1.5942 16.2067L3.85093 17.5065C5.07246 18.1255 5.83851 17.4033 5.83851 16.6812V7.29352C5.83851 7.16972 5.94203 7.04593 6.08696 7.04593H7.14286C7.26708 7.04593 7.3913 7.14909 7.3913 7.29352V16.6812C7.3913 18.3112 6.50104 19.2602 4.94824 19.2602C4.47205 19.2602 4.09938 19.2602 3.04348 18.7444L0.869565 17.5065C0.331263 17.197 0 16.6193 0 16.0003V6.48886C0 5.86989 0.331263 5.29218 0.869565 4.9827L9.13043 0.216639C9.64803 -0.072213 10.352 -0.072213 10.8696 0.216639L19.1304 4.9827C19.6687 5.29218 20 5.86989 20 6.48886V16.0003C20 16.6193 19.6687 17.197 19.1304 17.5065L10.8696 22.2726C10.6004 22.3964 10.2899 22.4583 10 22.4583ZM12.5466 15.9178C8.92339 15.9178 8.17805 14.2672 8.17805 12.8642C8.17805 12.7404 8.28157 12.6166 8.4265 12.6166H9.50311C9.62733 12.6166 9.73085 12.6992 9.73085 12.823C9.89648 13.9165 10.3727 14.4529 12.5673 14.4529C14.3064 14.4529 15.0518 14.0609 15.0518 13.1325C15.0518 12.596 14.8447 12.204 12.1325 11.9358C9.87578 11.7088 8.46791 11.2137 8.46791 9.41864C8.46791 7.74743 9.87578 6.75708 12.236 6.75708C14.8861 6.75708 16.1905 7.6649 16.3561 9.6456C16.3561 9.70749 16.3354 9.76939 16.294 9.83129C16.2526 9.87255 16.1905 9.91382 16.1284 9.91382H15.0518C14.9482 9.91382 14.8447 9.83129 14.824 9.72813C14.5756 8.59335 13.9337 8.22197 12.236 8.22197C10.3313 8.22197 10.1035 8.8822 10.1035 9.37738C10.1035 9.97571 10.3727 10.1614 12.94 10.4915C15.4865 10.8216 16.6874 11.2962 16.6874 13.0706C16.6667 14.8862 15.176 15.9178 12.5466 15.9178Z" fill="#539E43"/>
</svg>
