<svg width="20" height="18" viewBox="0 0 20 18" fill="none" xmlns="http://www.w3.org/2000/svg">
<path d="M6.07672 0.000102461C5.99947 -0.000621865 5.92346 0.00250486 5.84886 0.00914208C5.55043 0.035691 5.27392 0.12142 5.02404 0.267776C4.38792 0.640228 4.02583 1.36862 3.90675 2.31374C3.7914 3.22924 3.90806 4.36515 4.21825 5.62476C2.97441 5.97988 1.93476 6.44289 1.20242 7.00029C0.446281 7.57581 0 8.25678 0 8.99955C0 9.74231 0.446283 10.4233 1.20242 10.9988C1.93476 11.5562 2.97441 12.0196 4.21825 12.3748C3.90806 13.6343 3.7914 14.7698 3.90675 15.6854C4.02583 16.6305 4.38791 17.3589 5.02404 17.7313C5.32927 17.91 5.67559 18.0003 6.05168 18C6.29087 18 6.54228 17.9639 6.80439 17.8935C7.79271 17.628 8.89317 16.866 10 15.7773C11.1068 16.866 12.2073 17.628 13.1956 17.8935C13.4577 17.9639 13.7091 18 13.9483 18C14.3241 18 14.6707 17.9102 14.976 17.7313C15.6121 17.3589 15.9737 16.6305 16.0927 15.6854C16.2081 14.7698 16.0918 13.6343 15.7818 12.3748C17.0256 12.0196 18.0652 11.5562 18.7976 10.9988C19.5537 10.4233 20 9.74231 20 8.99955C20 8.25678 19.5537 7.57581 18.7976 7.00029C18.0652 6.44289 17.0256 5.97988 15.7818 5.62476C16.0919 4.36528 16.2086 3.22976 16.0933 2.31425C15.9742 1.36909 15.6121 0.640232 14.976 0.267776C14.4762 -0.0249534 13.8692 -0.0751699 13.1956 0.105565C12.2072 0.370873 11.1068 1.13357 10 2.22234C8.89317 1.13358 7.79271 0.371118 6.80439 0.105565C6.55177 0.0376845 6.30849 0.00227518 6.07672 0.000102461ZM6.07572 0.256225C6.28258 0.258679 6.50309 0.291094 6.73778 0.354154C7.68014 0.607358 8.79064 1.36144 9.90936 2.48047C9.9334 2.50458 9.966 2.51812 10 2.51812C10.034 2.51812 10.0666 2.50458 10.0906 2.48047C11.2094 1.36143 12.3199 0.607097 13.2622 0.354154C13.8881 0.186225 14.4132 0.235826 14.8468 0.489749C15.3937 0.809993 15.7257 1.44871 15.8388 2.34639C15.9519 3.24406 15.8406 4.38991 15.5123 5.67699C15.504 5.7096 15.5088 5.74418 15.5257 5.77329C15.5425 5.80239 15.5701 5.82371 15.6025 5.83267C16.8792 6.18564 17.9246 6.65892 18.6423 7.20518C19.36 7.75145 19.7436 8.36 19.7436 8.99955C19.7436 9.6391 19.36 10.2476 18.6423 10.7939C17.9246 11.3402 16.8792 11.8133 15.6025 12.1664C15.5701 12.1754 15.5425 12.1967 15.5257 12.2258C15.5088 12.2549 15.504 12.2895 15.5123 12.3221C15.8404 13.6092 15.9519 14.7555 15.8388 15.6532C15.7258 16.5509 15.3937 17.1891 14.8468 17.5093C14.5819 17.6646 14.2842 17.7429 13.9483 17.7429C13.7347 17.7429 13.5058 17.7103 13.2622 17.6449V17.6454C12.3199 17.3922 11.2094 16.6377 10.0906 15.5186C10.0666 15.4945 10.034 15.481 10 15.481C9.966 15.481 9.9334 15.4945 9.90936 15.5186C8.79064 16.6377 7.68014 17.3922 6.73778 17.6454V17.6449C6.49425 17.7103 6.26532 17.7429 6.05168 17.7429C5.71598 17.7431 5.41827 17.6645 5.15325 17.5093C4.60629 17.1891 4.27426 16.5509 4.16116 15.6532C4.04806 14.7555 4.15944 13.6097 4.48768 12.3226C4.49611 12.2899 4.49139 12.2552 4.47452 12.226C4.45766 12.1968 4.43 12.1754 4.39754 12.1664C3.12077 11.8133 2.07538 11.3402 1.35767 10.7939C0.639967 10.2476 0.25641 9.6391 0.25641 8.99955C0.25641 8.36 0.639969 7.75145 1.35767 7.20518C2.07537 6.65892 3.12078 6.18564 4.39754 5.83267C4.42989 5.82371 4.45746 5.80239 4.47431 5.77329C4.49117 5.74418 4.49597 5.7096 4.48768 5.67699C4.15944 4.38978 4.04806 3.24403 4.16116 2.34639C4.27426 1.44874 4.60629 0.809996 5.15325 0.489749C5.37003 0.362778 5.60964 0.286963 5.8734 0.263758C5.93934 0.257957 6.00677 0.255407 6.07572 0.256225ZM6.05519 0.771484C5.81576 0.771484 5.59791 0.824599 5.41166 0.933695C4.95965 1.1983 4.71548 1.78605 4.64794 2.57941C4.58039 3.37276 4.69015 4.38745 4.98798 5.55344C4.99628 5.5858 5.01682 5.61364 5.04523 5.63107C5.07365 5.64851 5.10772 5.65417 5.14022 5.64685C5.94749 5.46463 6.83025 5.32748 7.76843 5.24258C7.78708 5.24087 7.80513 5.23508 7.82131 5.22562C7.83749 5.21617 7.8514 5.20327 7.86208 5.18784C8.41272 4.39193 8.98534 3.66737 9.5613 3.0339C9.5836 3.00946 9.59563 2.97733 9.59488 2.9442C9.59414 2.91108 9.58067 2.87953 9.55729 2.85612C8.51804 1.81163 7.49787 1.09073 6.60507 0.850831C6.41073 0.798881 6.2272 0.771484 6.05519 0.771484ZM13.9448 0.771484C13.7726 0.771484 13.5894 0.798909 13.3949 0.850831C12.5021 1.09073 11.482 1.81214 10.4427 2.85662C10.4195 2.88001 10.4061 2.91146 10.4054 2.94446C10.4046 2.97746 10.4165 3.00948 10.4387 3.0339C11.0147 3.66738 11.5873 4.39169 12.1379 5.18784C12.1486 5.20327 12.1625 5.21617 12.1787 5.22562C12.1949 5.23508 12.2129 5.24087 12.2316 5.24258C13.1698 5.32748 14.0522 5.46463 14.8598 5.64685C14.8923 5.65417 14.9263 5.64851 14.9548 5.63107C14.9832 5.61364 15.0037 5.5858 15.012 5.55344C15.3098 4.38745 15.4196 3.3728 15.3521 2.57941C15.2845 1.78602 15.0403 1.19843 14.5883 0.933695C14.4022 0.824481 14.184 0.771484 13.9448 0.771484ZM6.05519 1.02861C6.2001 1.02861 6.36202 1.05162 6.53896 1.09892C7.32989 1.31144 8.29926 1.98648 9.28986 2.9646C8.74596 3.57136 8.20701 4.24907 7.6878 4.9955C6.80866 5.07739 5.98297 5.20802 5.21484 5.37566C4.94561 4.2816 4.8417 3.32507 4.90335 2.601C4.96728 1.85005 5.20006 1.35518 5.54087 1.15567C5.68385 1.07192 5.85308 1.02861 6.05519 1.02861ZM13.9448 1.02861C14.1466 1.02861 14.3161 1.07204 14.4586 1.15567H14.4591C14.8 1.3553 15.0327 1.85052 15.0967 2.60151C15.1583 3.32571 15.0545 4.2819 14.7852 5.37617C14.0168 5.20852 13.1913 5.07739 12.3122 4.9955C11.793 4.24883 11.254 3.57132 10.7101 2.9646C11.7008 1.98646 12.6701 1.31143 13.461 1.09892C13.6383 1.05159 13.7996 1.02861 13.9448 1.02861ZM9.99149 3.37992C9.95824 3.38215 9.92716 3.39728 9.90485 3.4221C9.48225 3.89069 9.06071 4.40918 8.64934 4.96938C8.63503 4.98898 8.62655 5.01223 8.62487 5.03646C8.6232 5.06069 8.6284 5.08489 8.63987 5.10628C8.65135 5.12767 8.66863 5.14536 8.68971 5.1573C8.7108 5.16925 8.73483 5.17496 8.75901 5.17378C9.16544 5.15407 9.57874 5.14264 10 5.14264C10.4213 5.14264 10.8346 5.15432 11.241 5.17428C11.2653 5.17554 11.2894 5.16985 11.3106 5.15789C11.3317 5.14592 11.3491 5.12816 11.3606 5.10669C11.3721 5.08521 11.3772 5.0609 11.3755 5.03659C11.3737 5.01228 11.3651 4.98897 11.3507 4.96938C10.9393 4.40891 10.5178 3.89069 10.0952 3.4221C10.0822 3.40767 10.0661 3.39638 10.0481 3.38907C10.0302 3.38177 10.0108 3.37864 9.99149 3.37992ZM10 3.71187C10.3265 4.08004 10.6512 4.48491 10.9721 4.91012C10.6514 4.89759 10.3303 4.88552 10 4.88552C9.66971 4.88552 9.34852 4.89771 9.02795 4.91012C9.34887 4.48496 9.67339 4.08011 10 3.71187ZM10 5.6569C9.36957 5.6569 8.76244 5.68101 8.18009 5.72469C8.16079 5.72615 8.14207 5.73196 8.12533 5.7417C8.10859 5.75144 8.09427 5.76486 8.08343 5.78094C7.75519 6.2703 7.43568 6.7822 7.13141 7.31667C6.81726 7.86894 6.53518 8.41232 6.28255 8.94431C6.27429 8.96163 6.27 8.98059 6.27 8.9998C6.27 9.01901 6.27429 9.03797 6.28255 9.05529C6.53518 9.58728 6.81725 10.1309 7.13141 10.6829C7.43545 11.2172 7.75498 11.7289 8.08293 12.2182C8.09382 12.2343 8.10822 12.2478 8.12505 12.2575C8.14188 12.2672 8.1607 12.273 8.18009 12.2744C8.76244 12.3181 9.36957 12.3422 10 12.3422C10.6304 12.3422 11.2378 12.3181 11.8204 12.2744C11.8397 12.273 11.8584 12.2671 11.8752 12.2574C11.8919 12.2477 11.9062 12.2342 11.9171 12.2182C12.245 11.7289 12.5651 11.2172 12.8691 10.6829C13.1833 10.1309 13.4653 9.58728 13.7179 9.05529C13.7262 9.03797 13.7305 9.01901 13.7305 8.9998C13.7305 8.98059 13.7262 8.96163 13.7179 8.94431C13.4653 8.41204 13.1833 7.8687 12.8691 7.31667V7.31617C12.5648 6.78195 12.245 6.27026 11.9171 5.78094C11.9062 5.7648 11.8918 5.75134 11.8749 5.7416C11.8581 5.73185 11.8393 5.72607 11.8199 5.72469C11.2373 5.68102 10.6304 5.6569 10 5.6569ZM7.21354 5.81861C7.20685 5.81842 7.20015 5.81875 7.19351 5.81961C6.5168 5.90059 5.88266 6.01019 5.29497 6.14152C5.27771 6.14538 5.26144 6.15278 5.24717 6.16326C5.2329 6.17373 5.22095 6.18705 5.21206 6.20238C5.20317 6.2177 5.19754 6.23471 5.19552 6.25233C5.1935 6.26994 5.19513 6.28779 5.20032 6.30474C5.37985 6.88836 5.60185 7.50163 5.87039 8.13827C5.87988 8.16085 5.89559 8.18024 5.9157 8.19417C5.9358 8.20809 5.95945 8.21596 5.98386 8.21686C6.00828 8.21775 6.03244 8.21164 6.0535 8.19923C6.07457 8.18682 6.09166 8.16863 6.10276 8.14681C6.28556 7.78686 6.47867 7.42462 6.6857 7.06155H6.6862C6.89035 6.70298 7.10138 6.35561 7.31671 6.01597C7.32878 5.9969 7.33562 5.97497 7.33655 5.95239C7.33749 5.92982 7.33247 5.9074 7.32201 5.88739C7.31155 5.86738 7.29602 5.85048 7.27697 5.83841C7.25793 5.82633 7.23605 5.8195 7.21354 5.81861ZM12.7935 5.81861C12.7893 5.81857 12.7851 5.81874 12.781 5.81911C12.7589 5.82091 12.7377 5.82839 12.7194 5.84083C12.7011 5.85327 12.6863 5.87025 12.6765 5.89011C12.6667 5.90997 12.6621 5.93205 12.6633 5.95419C12.6645 5.97633 12.6714 5.99779 12.6833 6.01647C12.8984 6.35622 13.1102 6.7028 13.3143 7.06155V7.06206C13.5211 7.42488 13.7142 7.78658 13.8972 8.14681C13.9083 8.16865 13.9253 8.18687 13.9464 8.19932C13.9674 8.21177 13.9916 8.21794 14.016 8.2171C14.0404 8.21625 14.0641 8.20843 14.0842 8.19456C14.1043 8.18068 14.1201 8.16133 14.1296 8.13878C14.3982 7.50188 14.6199 6.8888 14.7997 6.30524C14.805 6.28829 14.8067 6.27043 14.8047 6.25278C14.8028 6.23514 14.7972 6.21809 14.7884 6.20271C14.7795 6.18733 14.7676 6.17395 14.7533 6.16342C14.7391 6.15289 14.7228 6.14543 14.7055 6.14152C14.1176 6.01019 13.4832 5.90059 12.8065 5.81961C12.8022 5.81905 12.7978 5.81872 12.7935 5.81861ZM10 5.91402C10.6021 5.91402 11.18 5.93792 11.7378 5.97831C12.0505 6.44729 12.356 6.93422 12.6462 7.44373C12.9464 7.97125 13.2138 8.49041 13.457 8.99955C13.2137 9.50859 12.9465 10.0277 12.6462 10.5554C12.3563 11.0648 12.0506 11.5518 11.7378 12.0208C11.1801 12.0612 10.6019 12.0851 10 12.0851C9.39793 12.0851 8.81981 12.0612 8.26222 12.0208C7.94945 11.5518 7.64369 11.0648 7.35377 10.5554C7.05348 10.0277 6.78626 9.50859 6.54297 8.99955C6.78621 8.49062 7.05355 7.97151 7.35377 7.44373C7.64396 6.93397 7.94977 6.44725 8.26272 5.97831C8.82015 5.93794 9.39811 5.91402 10 5.91402ZM6.95413 6.12043C6.78824 6.38731 6.62257 6.65432 6.46334 6.934C6.30241 7.21621 6.15629 7.49624 6.01062 7.77619C5.81441 7.292 5.63856 6.81872 5.49579 6.36751C5.95211 6.2694 6.44345 6.18888 6.95413 6.12043ZM13.0459 6.12093C13.5565 6.18937 14.0473 6.26992 14.5037 6.36801C14.3608 6.81911 14.185 7.29205 13.9889 7.77619C13.8432 7.49636 13.6978 7.21628 13.5372 6.9345C13.3779 6.65464 13.2116 6.38764 13.0459 6.12093ZM4.56981 6.32533C4.55948 6.32559 4.54923 6.32711 4.53926 6.32985C3.38378 6.64902 2.45305 7.05745 1.80288 7.51153C1.15271 7.9656 0.769231 8.47287 0.769231 8.99955C0.769231 9.52623 1.15271 10.0335 1.80288 10.4876C2.45305 10.9416 3.38378 11.3501 4.53926 11.6693C4.57139 11.678 4.60567 11.6739 4.63483 11.6578C4.66399 11.6417 4.68575 11.6148 4.69551 11.5829C4.94215 10.7766 5.26646 9.92661 5.66557 9.05328C5.6733 9.03643 5.6773 9.0181 5.6773 8.99955C5.6773 8.981 5.6733 8.96267 5.66557 8.94581C5.26646 8.07249 4.94215 7.22253 4.69551 6.41623C4.68732 6.3894 4.6706 6.36599 4.64791 6.34958C4.62521 6.33317 4.59778 6.32465 4.56981 6.32533ZM15.4227 6.32533C15.396 6.32625 15.3703 6.33551 15.3491 6.3518C15.3279 6.3681 15.3123 6.39062 15.3045 6.41623C15.0578 7.22228 14.7335 8.0725 14.3344 8.94581C14.3267 8.96267 14.3227 8.981 14.3227 8.99955C14.3227 9.0181 14.3267 9.03643 14.3344 9.05328C14.7335 9.92661 15.0579 10.7766 15.3045 11.5829C15.3142 11.6148 15.336 11.6417 15.3652 11.6578C15.3943 11.6739 15.4286 11.678 15.4607 11.6693C16.6162 11.3501 17.5469 10.9416 18.1971 10.4876C18.8473 10.0335 19.2308 9.52623 19.2308 8.99955C19.2308 8.47287 18.8473 7.9656 18.1971 7.51153C17.5469 7.05745 16.6162 6.64903 15.4607 6.32985C15.4483 6.32644 15.4355 6.32491 15.4227 6.32533ZM4.4982 6.6156C4.73813 7.38082 5.03914 8.17884 5.41166 8.99955C5.03914 9.82026 4.73813 10.6183 4.4982 11.3835C3.41944 11.0751 2.54253 10.6907 1.94962 10.2766C1.33466 9.84715 1.02564 9.3975 1.02564 8.99955C1.02564 8.6016 1.33466 8.15193 1.94962 7.72245C2.54253 7.30837 3.41944 6.92399 4.4982 6.6156ZM15.5018 6.6156C16.5806 6.92399 17.4575 7.30837 18.0504 7.72245C18.6653 8.15192 18.9744 8.6016 18.9744 8.99955C18.9744 9.3975 18.6653 9.84717 18.0504 10.2766C17.4575 10.6907 16.5806 11.0751 15.5018 11.3835C15.2619 10.6183 14.9609 9.82026 14.5883 8.99955C14.9609 8.17882 15.2619 7.38061 15.5018 6.6156ZM10 6.94253C8.87015 6.94253 7.94872 7.86654 7.94872 8.99955C7.94872 10.1326 8.87015 11.0566 10 11.0566C11.1299 11.0566 12.0513 10.1326 12.0513 8.99955C12.0513 7.86654 11.1299 6.94253 10 6.94253ZM10 7.45679C10.8527 7.45679 11.5385 8.14446 11.5385 8.99955C11.5385 9.85464 10.8527 10.5423 10 10.5423C9.14729 10.5423 8.46154 9.85464 8.46154 8.99955C8.46154 8.14446 9.14729 7.45679 10 7.45679ZM5.98858 9.78248C5.96338 9.78245 5.93874 9.78986 5.91772 9.8038C5.8967 9.81773 5.88024 9.83756 5.87039 9.86082C5.60183 10.4972 5.38009 11.1106 5.20032 11.6939C5.19505 11.7108 5.19333 11.7287 5.19528 11.7463C5.19723 11.764 5.2028 11.781 5.21165 11.7964C5.22049 11.8118 5.23242 11.8251 5.24667 11.8357C5.26093 11.8462 5.2772 11.8537 5.29447 11.8576C5.88216 11.9889 6.51656 12.0985 7.19301 12.1795C7.21712 12.1824 7.24154 12.1783 7.26345 12.1678C7.28535 12.1573 7.30383 12.1408 7.31674 12.1202C7.32964 12.0995 7.33644 12.0757 7.33635 12.0513C7.33626 12.027 7.32927 12.0031 7.31621 11.9826C7.10111 11.6432 6.8896 11.2964 6.6852 10.9375C6.47862 10.5746 6.28554 10.2127 6.10276 9.85279C6.09205 9.83165 6.07571 9.8139 6.05556 9.80149C6.03541 9.78908 6.01223 9.7825 5.98858 9.78248ZM14.0074 9.78248C13.9845 9.78323 13.9621 9.79015 13.9427 9.80251C13.9233 9.81488 13.9076 9.83225 13.8972 9.85279C13.7144 10.2127 13.5211 10.5747 13.3143 10.9375C13.1102 11.2961 12.8984 11.6429 12.6833 11.9826C12.6702 12.0031 12.6632 12.027 12.6632 12.0513C12.6631 12.0757 12.6699 12.0995 12.6828 12.1202C12.6957 12.1408 12.7141 12.1573 12.7361 12.1678C12.758 12.1783 12.7824 12.1824 12.8065 12.1795C13.4832 12.0985 14.1174 11.9889 14.705 11.8576C14.7223 11.8537 14.7387 11.8463 14.753 11.8358C14.7673 11.8253 14.7793 11.8119 14.7882 11.7965C14.7971 11.7812 14.8027 11.7641 14.8047 11.7464C14.8066 11.7287 14.8049 11.7108 14.7997 11.6939C14.6199 11.1106 14.3982 10.4975 14.1296 9.86082C14.1195 9.83692 14.1024 9.81665 14.0806 9.80266C14.0588 9.78868 14.0333 9.78164 14.0074 9.78248ZM6.01112 10.2234C6.15674 10.5031 6.30247 10.7834 6.46284 11.0651C6.6222 11.3449 6.78794 11.6116 6.95363 11.8782C6.44331 11.8097 5.95244 11.7291 5.49629 11.6311C5.63919 11.1801 5.81504 10.7072 6.01112 10.2234ZM13.9889 10.2234C14.185 10.7074 14.3608 11.1802 14.5037 11.6311C14.0476 11.7291 13.5568 11.8097 13.0464 11.8782C13.2121 11.6116 13.378 11.3446 13.5372 11.0651C13.6978 10.7833 13.8433 10.5031 13.9889 10.2234ZM14.8898 12.3487C14.8795 12.3487 14.8693 12.3498 14.8593 12.3522C14.052 12.5345 13.1698 12.6716 12.2316 12.7565C12.2129 12.7582 12.1949 12.764 12.1787 12.7735C12.1625 12.7829 12.1486 12.7958 12.1379 12.8113C11.5873 13.6074 11.0147 14.3317 10.4387 14.9652C10.4164 14.9896 10.4044 15.0218 10.4051 15.0549C10.4059 15.088 10.4193 15.1196 10.4427 15.143C11.482 16.1875 12.5021 16.9084 13.3949 17.1483C13.8606 17.273 14.2682 17.2529 14.5883 17.0654C15.0403 16.8007 15.2846 16.2131 15.3521 15.4197C15.4196 14.6263 15.3095 13.6118 15.0115 12.4457C15.0046 12.4184 14.989 12.3941 14.967 12.3766C14.945 12.3591 14.9179 12.3493 14.8898 12.3487ZM5.11518 12.3492C5.08624 12.3485 5.05791 12.3577 5.03482 12.3752C5.01172 12.3927 4.99521 12.4175 4.98798 12.4457C4.69028 13.6116 4.58043 14.6263 4.64794 15.4197C4.71545 16.2131 4.95967 16.8007 5.41166 17.0654L5.41216 17.0659C5.73227 17.2527 6.13962 17.2727 6.60507 17.1483C7.49787 16.9084 8.5183 16.1872 9.55729 15.143C9.58053 15.1196 9.5939 15.0881 9.59464 15.0551C9.59539 15.0221 9.58345 14.9901 9.5613 14.9657C8.98531 14.3319 8.41271 13.6074 7.86208 12.8113C7.8514 12.7958 7.83749 12.7829 7.82131 12.7735C7.80513 12.764 7.78708 12.7582 7.76843 12.7565C6.8305 12.6716 5.94749 12.5345 5.14022 12.3522C5.132 12.3504 5.12361 12.3494 5.11518 12.3492ZM14.7847 12.6229C15.0541 13.7173 15.1583 14.6739 15.0967 15.3981C15.0328 16.1491 14.8 16.6438 14.4591 16.8434C14.2137 16.9872 13.8846 17.0136 13.461 16.9002C12.6701 16.6877 11.7007 16.0126 10.7101 15.0345C11.254 14.4277 11.793 13.7503 12.3122 13.0036C13.1913 12.9217 14.0166 12.7906 14.7847 12.6229ZM5.21484 12.6234C5.98296 12.7911 6.8084 12.9217 7.6873 13.0036C8.20653 13.7503 8.74547 14.4281 9.28936 15.035C8.299 16.0129 7.32988 16.6877 6.53896 16.9002C6.1157 17.0133 5.7864 16.9867 5.54087 16.8434C5.20004 16.6438 4.96725 16.1491 4.90335 15.3981C4.84173 14.674 4.94572 13.7175 5.21484 12.6234ZM8.74599 12.8253C8.72291 12.8265 8.70059 12.834 8.68138 12.8469C8.66218 12.8598 8.64681 12.8777 8.63691 12.8986C8.627 12.9196 8.62293 12.9428 8.62512 12.9659C8.62731 12.989 8.63568 13.011 8.64934 13.0297C9.06072 13.5902 9.48225 14.1084 9.90485 14.577C9.91687 14.5903 9.93155 14.601 9.94794 14.6083C9.96433 14.6156 9.98207 14.6194 10 14.6194C10.0179 14.6194 10.0357 14.6156 10.0521 14.6083C10.0685 14.601 10.0831 14.5903 10.0952 14.577C10.5177 14.1082 10.9393 13.5899 11.3507 13.0297C11.365 13.0101 11.3735 12.9869 11.3751 12.9626C11.3768 12.9384 11.3716 12.9142 11.3601 12.8928C11.3487 12.8714 11.3314 12.8537 11.3103 12.8418C11.2892 12.8299 11.2652 12.8241 11.241 12.8253C10.8346 12.845 10.4213 12.8565 10 12.8565C9.57874 12.8565 9.16544 12.845 8.75901 12.8253C8.75468 12.8251 8.75033 12.8251 8.74599 12.8253ZM9.02795 13.089C9.34852 13.1014 9.66971 13.1136 10 13.1136C10.3303 13.1136 10.6515 13.1014 10.9721 13.089C10.6511 13.5141 10.3266 13.9188 10 14.2872C9.6734 13.919 9.34886 13.5143 9.02795 13.089Z" fill="#009CC5"/>
</svg>
