<svg width="18" height="18" viewBox="0 0 18 18" fill="none" xmlns="http://www.w3.org/2000/svg">
<path d="M0.428571 0C0.314911 1.13644e-05 0.205908 0.0451679 0.125538 0.125538C0.0451679 0.205908 1.13644e-05 0.314911 0 0.428571V17.5714C1.13644e-05 17.6851 0.0451679 17.7941 0.125538 17.8745C0.205908 17.9548 0.314911 18 0.428571 18H17.5714C17.6851 18 17.7941 17.9548 17.8745 17.8745C17.9548 17.7941 18 17.6851 18 17.5714V0.428571C18 0.314911 17.9548 0.205908 17.8745 0.125538C17.7941 0.0451679 17.6851 1.13644e-05 17.5714 0H0.428571ZM0.857143 0.857143H17.1429V17.1429H0.857143V0.857143ZM4.71429 8.14286V9.61942H6.85714V16.2857H8.57143V9.61942H10.7143V8.14286H4.71429ZM14.0106 8.14704C12.6758 8.14173 11.1504 8.54624 11.1504 10.4247C11.1504 12.8804 14.4593 12.881 14.4593 13.9888C14.4593 14.0938 14.5038 14.8569 13.3359 14.8569C12.1681 14.8569 11.1948 14.1228 11.1948 14.1228V15.9049C11.1948 15.9049 16.2866 17.5517 16.2866 13.8382C16.2861 11.4275 12.9467 11.548 12.9467 10.3502C12.9467 9.88602 13.2764 9.45201 14.1897 9.45201C15.103 9.45201 15.9116 9.99107 15.9116 9.99107L15.9718 8.40318C15.9718 8.40318 15.0488 8.15117 14.0106 8.14704Z" fill="#1976D2"/>
</svg>
