<svg width="180" height="73" viewBox="0 0 180 73" fill="none" xmlns="http://www.w3.org/2000/svg">
<g clip-path="url(#clip0_28_88)">
<path d="M0.210205 47.4318V41.75L45.9489 18.4545V27.5455L10.8636 44.4489L11.1477 43.8807V45.3011L10.8636 44.733L45.9489 61.6364V70.7273L0.210205 47.4318ZM179.445 47.4318L133.706 70.7273V61.6364L168.792 44.733L168.507 45.3011V43.8807L168.792 44.4489L133.706 27.5455V18.4545L179.445 41.75V47.4318Z" fill="#119DA4"/>
<path d="M67.8327 73H58.5998L85.3043 0.272736H94.3952L121.1 73H111.867L90.1339 11.7784H89.5657L67.8327 73ZM71.2418 44.5909H108.458V52.4034H71.2418V44.5909Z" fill="#119DA4"/>
</g>
<defs>
<clipPath id="clip0_28_88">
<rect width="180" height="73" fill="white"/>
</clipPath>
</defs>
</svg>
