<svg width="418" height="482" viewBox="0 0 418 482" fill="none" xmlns="http://www.w3.org/2000/svg">
<path d="M200.363 0.462601C199.297 0.862595 195.297 2.4626 191.563 4.19594C179.963 9.52925 166.897 12.9959 162.363 12.0626C156.23 10.5959 147.297 11.3959 143.03 13.5293C138.897 15.6626 132.363 21.2626 132.363 22.7293C132.363 23.2626 131.03 25.3959 129.43 27.5293C127.297 30.4626 126.897 31.9292 127.963 32.9959C129.163 34.1959 130.097 33.2626 131.697 29.3959C133.83 24.1959 138.23 19.6626 144.363 16.3292C147.83 14.5959 157.163 13.6626 159.297 14.9959C160.63 15.7959 154.763 20.8626 152.497 20.8626C151.697 20.8626 151.03 21.3959 151.03 22.0626C151.03 22.7293 149.697 23.7959 148.097 24.1959C146.363 24.7293 143.297 26.8626 141.03 28.8626C136.097 33.3959 128.763 37.2626 127.03 36.1959C126.23 35.7959 125.697 36.4626 125.697 37.7959C125.697 39.1293 121.43 44.4626 116.097 49.5293C110.897 54.7292 105.03 61.2626 103.163 64.1959C98.2301 71.9292 92.4968 79.3959 86.7634 85.7959C83.9634 88.9959 81.6968 92.3293 81.6968 93.2626C81.6968 94.3293 80.4968 96.7292 78.8968 98.7292C76.0968 102.329 77.4301 103.796 80.3634 100.196C82.8968 97.1293 84.3634 97.7959 84.4968 101.796C84.7634 105.396 84.7634 105.396 85.2968 102.196C85.6968 100.329 86.4968 98.1959 87.2968 97.5293C88.3634 96.5959 88.4968 96.9959 87.8301 98.5959C87.4301 99.9293 87.0301 102.196 87.0301 103.663C87.0301 105.129 86.0968 106.196 84.8968 106.196C83.1634 106.196 82.8968 107.129 83.2968 110.463C83.6968 112.863 83.4301 116.596 82.8968 118.863C79.9634 128.729 77.8301 154.063 79.4301 157.796C81.2968 161.929 78.6301 167.529 75.0301 167.529C73.4301 167.529 72.6301 168.063 73.0301 168.863C73.4301 169.529 75.2968 170.196 77.1634 170.196C80.3634 170.196 80.3634 170.196 77.6968 172.863C76.2301 174.329 75.0301 176.063 75.0301 176.729C75.0301 178.996 79.4301 179.529 82.4968 177.529C87.2968 174.463 88.3634 175.129 88.3634 181.129C88.4968 184.329 89.2968 188.596 90.3634 190.863L92.2301 194.863L91.4301 190.996C90.8968 188.463 91.1634 187.396 92.0968 188.063C92.8968 188.463 93.8301 190.596 94.3634 192.729C95.5634 198.196 102.63 208.863 105.03 208.863C106.097 208.863 107.03 209.529 107.03 210.196C107.03 210.996 109.963 214.463 113.43 217.929C116.897 221.396 121.163 225.929 122.897 228.196C124.497 230.329 125.563 231.129 125.163 229.929C124.763 228.596 123.43 222.329 122.23 215.929C120.363 206.063 120.363 202.463 121.563 193.263C122.63 186.196 122.763 174.863 122.23 161.796C121.43 143.263 121.563 140.863 123.697 137.129C125.563 133.929 127.43 132.863 131.563 132.063C134.63 131.663 138.23 130.596 139.563 129.929C145.697 126.729 177.697 129.529 183.43 133.796C186.23 135.929 195.163 137.929 214.363 140.863C224.63 142.329 234.897 144.329 237.297 145.129C242.363 146.996 243.963 149.929 240.63 151.129C225.83 156.196 211.163 165.796 213.163 168.996C213.563 169.663 212.763 171.663 211.563 173.396C210.097 175.929 209.697 178.196 210.363 182.196C210.897 185.129 211.563 187.529 211.963 187.529C212.363 187.529 214.097 186.329 215.963 184.863C217.963 183.263 220.097 182.596 220.897 183.263C221.697 183.796 224.497 183.929 227.03 183.396C229.563 182.996 231.297 182.463 230.763 182.329C229.563 182.196 235.03 175.529 236.497 175.529C237.03 175.529 237.83 176.996 238.23 178.729C238.63 180.463 240.497 182.863 242.23 184.063C246.897 186.996 251.963 184.863 254.497 178.863C256.23 174.729 256.763 174.329 259.03 175.529C262.897 177.663 262.363 178.996 256.097 183.663L250.363 187.796L256.363 186.996C269.83 185.263 275.83 181.663 274.23 176.463C273.563 174.196 273.697 174.196 276.23 176.729C277.83 178.329 280.097 179.529 281.563 179.529C282.897 179.529 285.697 180.329 287.697 181.396C289.697 182.463 292.097 182.996 293.03 182.729C295.03 181.929 298.23 189.129 297.163 192.463C296.763 193.796 296.097 204.196 295.697 215.529C294.63 245.396 292.363 259.396 286.497 273.129C283.03 281.129 284.363 283.529 289.43 278.463C290.763 277.129 292.763 275.663 293.963 275.263C295.163 274.729 296.363 272.329 296.897 269.663L297.83 264.996L304.63 265.796C309.563 266.463 311.163 266.196 310.497 265.129C309.963 264.196 308.63 263.529 307.563 263.529C304.23 263.529 306.23 260.463 310.097 259.396C313.83 258.463 322.63 250.463 322.097 248.729C321.83 248.063 322.497 247.929 323.563 248.329C324.63 248.729 325.83 248.329 326.497 247.396C327.163 246.329 326.897 246.063 325.563 246.863C324.497 247.529 325.03 246.463 326.763 244.596C328.363 242.863 329.697 240.596 329.697 239.529C329.697 238.063 329.297 238.196 328.097 239.796C324.897 243.529 319.83 246.196 315.43 246.196C313.03 246.196 311.03 245.529 311.03 244.863C311.03 244.063 310.097 243.529 308.897 243.529C306.097 243.529 307.43 236.996 310.63 234.463C312.497 233.129 312.497 232.863 310.897 232.729C309.83 232.596 307.83 232.463 306.363 232.329C304.363 232.196 303.697 231.396 303.963 228.463C304.097 226.063 303.697 225.129 302.763 225.663C301.83 226.196 301.697 225.929 302.23 225.129C302.763 224.329 303.963 223.929 305.03 224.463C306.097 224.863 307.03 224.463 307.03 223.529C307.03 222.463 305.83 222.196 303.43 222.729C301.297 223.396 299.563 223.129 298.897 222.063C297.563 219.929 298.897 216.863 301.163 216.863C303.163 216.863 303.163 214.063 301.03 212.596C300.23 211.929 300.363 211.529 301.43 211.529C302.23 211.529 303.03 210.729 303.03 209.663C303.03 208.596 304.63 207.396 306.63 206.863C310.097 206.063 312.497 207.663 314.097 212.063C314.497 212.863 316.497 211.796 318.897 209.663C323.163 205.529 332.363 201.529 332.363 203.796C332.363 204.463 333.03 204.596 333.697 204.196C334.497 203.796 335.03 202.196 335.03 200.863C335.03 197.663 337.697 196.063 339.163 198.329C339.83 199.396 340.363 199.796 340.363 199.263C340.363 197.929 335.83 188.329 334.763 187.529C333.03 186.196 332.097 177.129 333.563 176.329C334.363 175.796 335.03 176.196 335.03 177.263C335.03 178.329 335.963 179.529 337.03 179.929C338.497 180.596 338.63 180.063 337.697 177.396C336.897 175.529 336.363 172.463 336.363 170.596C336.363 167.663 336.763 167.396 339.963 168.196C343.03 168.863 343.297 168.729 341.83 166.996C340.363 165.263 340.897 165.129 344.897 165.663C350.897 166.329 350.897 165.396 345.697 154.463L341.83 146.196L344.497 139.929C346.363 135.663 347.03 131.929 346.497 128.863C345.963 125.529 346.097 124.996 346.897 126.863C348.097 129.529 348.097 129.529 349.163 126.996C349.83 125.396 349.563 124.196 348.763 123.929C347.963 123.663 347.563 121.663 347.963 119.396C348.23 117.263 347.697 112.596 346.497 109.129C345.43 105.663 344.23 100.463 343.697 97.6626C342.897 92.7292 343.03 92.4626 345.163 94.3293C347.43 96.0626 347.43 96.0626 345.297 92.8626C344.097 91.1293 343.03 87.7959 343.03 85.5293C343.03 82.9959 342.63 82.1959 341.83 83.2626C341.297 84.1959 341.03 81.7959 341.297 77.5293C341.43 73.5293 341.163 70.1959 340.63 70.1959C339.963 70.1959 339.563 71.9292 339.697 74.1959C340.097 80.0626 338.097 79.1293 336.363 72.4626C335.43 69.3959 333.963 65.3959 332.763 63.7959C329.697 58.8626 331.697 58.8626 336.23 63.7959L340.497 68.1959L338.763 64.1959C336.763 59.3959 335.03 57.9292 326.097 53.5293C322.363 51.6626 317.43 48.0626 315.163 45.5293C312.897 42.9959 310.63 40.8626 309.963 40.8626C309.297 40.8626 306.763 38.4626 304.363 35.5293C301.963 32.5959 296.497 27.9292 292.497 25.2626C288.363 22.4626 282.63 18.3292 279.563 16.0626C274.763 12.1959 261.697 6.4626 247.83 2.19594C242.897 0.595932 204.497 -0.737411 200.363 0.462601ZM329.697 64.1959C331.43 66.0626 332.497 67.5293 332.097 67.5293C331.83 67.5293 330.097 66.0626 328.363 64.1959C326.63 62.3293 325.563 60.8626 325.963 60.8626C326.23 60.8626 327.963 62.3293 329.697 64.1959ZM155.697 95.6626C156.23 98.5959 156.363 101.263 156.097 101.663C154.763 102.996 151.03 98.4626 150.23 94.4626C149.43 90.7292 149.697 90.1959 152.097 90.1959C154.23 90.1959 155.03 91.3959 155.697 95.6626ZM84.7634 131.129C84.3634 134.729 83.1634 139.263 82.2301 141.529C80.4968 145.396 80.4968 145.263 81.1634 138.863C82.2301 128.596 83.1634 124.863 84.4968 124.863C85.1634 124.863 85.2968 127.663 84.7634 131.129ZM134.23 128.596C131.297 129.263 130.097 127.663 132.363 126.196C133.563 125.396 134.63 125.529 135.297 126.596C135.83 127.529 135.43 128.329 134.23 128.596ZM339.43 132.996C338.363 136.863 337.697 136.063 337.697 131.129C337.697 128.196 338.097 127.396 338.897 128.729C339.563 129.663 339.697 131.663 339.43 132.996ZM268.497 163.529C273.697 168.863 273.43 170.196 267.43 168.596C264.63 167.796 257.83 166.729 252.363 166.329C241.963 165.396 241.963 164.329 252.63 162.863C256.097 162.463 259.297 161.529 259.697 160.729C261.163 158.463 264.763 159.529 268.497 163.529ZM329.697 197.396C329.697 200.729 329.03 202.063 327.03 202.596C323.83 203.396 323.563 201.796 326.363 198.996C327.43 197.929 328.363 196.063 328.363 194.996C328.363 193.796 328.63 192.863 329.03 192.863C329.43 192.863 329.697 194.863 329.697 197.396Z" fill="#13505B" fill-opacity="0.5"/>
<path d="M75.0302 105.529C73.9635 106.729 73.9635 107.529 74.7635 107.529C76.3635 107.529 78.2302 104.996 77.2968 104.063C77.0302 103.796 75.9635 104.329 75.0302 105.529Z" fill="#13505B" fill-opacity="0.5"/>
<path d="M72.3635 118.463C72.3635 122.196 72.6301 124.996 72.8968 124.729C73.9635 123.529 74.6301 111.529 73.5635 111.529C72.8968 111.529 72.3635 114.596 72.3635 118.463Z" fill="#13505B" fill-opacity="0.5"/>
<path d="M151.697 159.663C146.497 160.196 139.297 162.063 135.697 163.663C129.297 166.463 129.163 166.596 132.363 167.796C134.23 168.463 140.497 169.263 146.363 169.396C159.697 169.929 160.363 169.929 160.363 171.263C160.363 171.796 156.897 172.996 152.63 173.929C142.763 175.929 135.03 182.063 135.03 187.663C135.03 190.596 135.697 191.529 137.563 191.529C139.03 191.529 141.03 192.329 141.963 193.263C144.63 195.929 148.23 196.863 149.163 195.396C149.563 194.596 148.763 193.129 147.163 192.063C143.697 189.663 143.563 187.663 146.763 185.396C149.83 182.996 150.63 183.129 151.43 186.063C151.697 187.396 153.697 189.663 155.563 190.863C160.23 193.929 165.297 191.929 167.43 186.196C169.03 181.929 170.363 181.796 178.097 185.663C181.563 187.263 181.83 187.263 181.03 184.729C180.363 182.729 180.763 182.196 183.563 182.196C187.563 182.196 187.43 182.596 185.563 174.463C183.563 166.329 182.763 165.396 174.63 162.463C164.63 158.863 162.097 158.463 151.697 159.663Z" fill="#13505B" fill-opacity="0.5"/>
<path d="M171.697 188.863C171.297 189.529 171.43 190.196 172.23 190.196C172.897 190.196 173.963 189.529 174.363 188.863C174.763 188.063 174.63 187.529 173.83 187.529C173.163 187.529 172.097 188.063 171.697 188.863Z" fill="#13505B" fill-opacity="0.5"/>
<path d="M231.03 189.396C231.03 190.863 242.097 195.529 245.697 195.529C250.097 195.529 247.563 193.529 241.03 191.929C238.097 191.129 234.63 190.063 233.43 189.529C232.097 188.996 231.03 188.996 231.03 189.396Z" fill="#13505B" fill-opacity="0.5"/>
<path d="M170.23 193.529C168.63 194.596 167.163 195.129 166.763 194.863C166.363 194.463 166.23 195.396 166.363 196.863C166.497 198.329 166.897 199.796 167.43 200.329C168.63 201.529 176.363 195.663 176.363 193.396C176.363 190.996 173.697 190.996 170.23 193.529Z" fill="#13505B" fill-opacity="0.5"/>
<path d="M105.697 237.796C105.697 239.396 107.563 242.863 109.83 245.529C112.363 248.329 113.297 250.196 112.23 250.196C111.163 250.329 111.83 251.129 113.697 252.196C117.963 254.596 131.03 254.863 131.03 252.463C130.897 248.063 127.163 238.863 125.163 238.463C122.63 237.929 122.497 239.129 125.03 243.529C127.563 248.063 127.43 248.863 124.363 248.863C119.963 248.863 114.23 245.396 109.83 239.929C106.23 235.529 105.697 235.263 105.697 237.796Z" fill="#13505B" fill-opacity="0.5"/>
<path d="M211.563 243.529C208.23 244.863 206.097 247.529 208.363 247.529C209.163 247.529 209.43 248.063 209.03 248.863C208.63 249.529 209.03 250.196 209.963 250.196C211.297 250.196 211.43 250.463 209.963 251.263C209.03 251.929 208.63 253.396 209.163 254.596C209.83 256.329 209.163 256.863 206.497 256.863C204.23 256.863 203.03 256.196 203.03 254.729C203.03 252.996 202.63 252.863 201.163 254.196C199.43 255.529 199.963 256.463 203.963 260.729C207.297 264.329 209.563 265.663 211.297 265.129C212.763 264.729 213.563 263.796 213.163 262.596C212.763 261.529 213.03 261.129 213.697 261.529C214.497 262.063 215.03 263.129 214.897 263.929C214.23 269.129 217.297 269.529 221.697 264.863C222.763 263.663 223.563 262.996 223.43 263.263C223.297 263.663 223.83 264.596 224.763 265.396C226.763 267.529 232.363 268.996 232.363 267.529C232.363 266.863 233.963 266.596 236.097 266.729C238.097 266.996 240.497 267.263 241.43 267.396C242.23 267.396 243.03 268.196 243.03 268.863C243.03 269.663 242.23 270.196 241.43 270.063C240.497 269.929 237.03 270.196 233.697 270.596C223.83 272.063 213.563 273.129 203.697 273.663C198.63 273.796 190.63 274.463 186.097 274.996C178.23 275.796 177.697 275.796 177.697 273.129C177.697 269.529 176.363 266.196 174.897 266.196C174.23 266.196 171.297 267.663 168.363 269.529C162.497 273.263 161.563 276.463 165.43 279.929C167.563 281.796 170.63 282.063 188.497 281.529C221.163 280.463 237.43 278.729 247.297 275.263C257.03 271.929 258.097 270.196 254.23 264.196C252.363 261.263 247.297 258.063 249.03 260.863C249.83 262.063 244.897 262.863 240.497 262.196C239.297 262.063 238.897 262.729 239.563 264.329C240.23 266.196 240.097 266.329 238.363 264.863C236.763 263.529 236.363 263.529 236.363 264.996C236.363 266.196 235.83 266.063 234.763 264.596C233.83 263.396 231.83 262.196 230.363 261.929C228.897 261.663 226.897 259.796 225.963 257.796C224.897 255.663 223.297 253.663 222.23 253.263C221.163 252.863 220.363 251.663 220.363 250.463C220.363 249.396 220.763 248.863 221.297 249.263C222.363 250.463 228.363 244.996 228.363 242.996C228.363 242.196 227.83 242.463 227.03 243.529C226.097 245.129 225.163 245.129 221.297 243.796C216.23 241.929 215.43 241.929 211.563 243.529ZM199.03 276.863C199.03 277.529 197.83 278.196 196.23 278.196C194.763 278.196 193.963 277.529 194.363 276.863C194.763 276.063 196.097 275.529 197.163 275.529C198.23 275.529 199.03 276.063 199.03 276.863Z" fill="#13505B" fill-opacity="0.5"/>
<path d="M185.297 245.796C183.697 249.263 185.43 251.929 190.363 253.663C193.297 254.596 195.697 255.529 195.83 255.529C195.83 255.529 195.963 253.796 195.963 251.663C195.963 248.863 195.03 247.396 192.763 246.329C189.03 244.596 186.097 244.463 185.297 245.796Z" fill="#13505B" fill-opacity="0.5"/>
<path d="M128.363 260.863C126.497 261.396 123.03 261.929 120.763 262.063C118.363 262.196 116.363 262.729 116.363 263.529C116.363 264.196 114.763 264.863 112.763 264.863H109.03L113.43 267.529C115.83 268.996 118.23 270.063 118.763 269.929C119.297 269.796 121.297 270.196 123.163 270.729C125.163 271.263 129.163 271.129 132.097 270.196L137.563 268.729L135.43 264.196C134.23 261.663 132.897 259.529 132.497 259.663C132.097 259.796 130.23 260.329 128.363 260.863Z" fill="#13505B" fill-opacity="0.5"/>
<path d="M197.963 263.129C195.163 266.729 195.163 266.729 195.03 263.796C195.03 262.196 194.497 260.863 193.963 260.863C192.097 260.863 189.697 263.929 189.697 266.329C189.697 268.996 194.897 271.263 196.23 269.129C196.63 268.463 198.23 267.663 199.697 267.396C202.63 266.729 203.963 262.596 201.963 260.596C201.163 259.796 199.697 260.729 197.963 263.129Z" fill="#13505B" fill-opacity="0.5"/>
<path d="M132.63 273.263C125.563 275.529 129.563 279.529 137.03 277.663C139.297 277.129 139.963 276.196 139.43 274.196C138.63 271.263 138.763 271.263 132.63 273.263Z" fill="#13505B" fill-opacity="0.5"/>
<path d="M203.697 296.063L199.697 297.929L203.563 299.396C207.563 300.996 220.363 300.063 220.363 298.063C220.363 296.996 218.897 296.463 210.763 294.996C209.03 294.596 205.963 295.129 203.697 296.063Z" fill="#13505B" fill-opacity="0.5"/>
<path d="M266.497 301.529C265.163 302.596 263.43 303.129 262.63 302.596C261.83 302.196 261.697 302.463 262.23 303.396C263.163 304.729 258.363 312.996 256.097 313.929C255.563 314.196 253.163 315.796 250.63 317.396C244.63 321.529 241.43 322.196 237.563 320.196C235.697 319.129 233.563 318.863 232.23 319.529C229.43 321.129 221.697 320.729 221.697 318.996C221.697 318.196 221.03 318.329 220.097 319.263C217.697 321.663 215.963 321.129 216.763 318.196C217.697 314.463 215.697 313.663 211.83 316.196C209.963 317.529 207.43 318.063 205.83 317.529C203.563 316.863 202.897 317.663 201.563 322.196C200.497 325.929 199.563 327.129 198.763 325.929C197.963 324.596 197.43 324.596 196.363 326.196C195.297 327.929 194.763 327.929 192.097 326.329C190.097 324.996 189.03 324.996 188.63 326.063C188.23 327.129 187.697 326.996 186.497 325.796C179.83 319.396 173.697 314.196 172.63 314.196C172.097 314.196 169.83 312.329 167.697 310.196C163.697 305.929 159.963 304.596 163.297 308.463C164.363 309.796 165.163 311.796 165.03 312.863C164.897 315.396 169.03 321.929 173.43 325.796C175.297 327.529 176.23 328.863 175.563 328.863C174.897 328.996 176.097 329.929 178.23 331.129C180.363 332.196 182.763 333.663 183.563 334.329C193.297 342.463 203.297 345.929 208.097 342.729C210.363 341.263 211.697 341.129 213.697 342.196C215.83 343.396 218.363 342.729 225.963 339.529C231.297 337.396 236.363 335.529 237.163 335.529C239.697 335.529 246.23 331.796 249.297 328.596C257.43 320.329 264.363 311.929 265.163 309.529C265.563 308.063 267.563 305.263 269.43 303.129C273.163 299.263 271.03 298.063 266.497 301.529Z" fill="#13505B" fill-opacity="0.5"/>
<path d="M111.145 344.802C92.4783 354.669 84.6116 358.402 82.7449 358.536C80.0782 358.536 53.2782 365.202 43.8116 368.136C26.0782 373.602 13.1301 377.233 6.06339 381.5C2.06339 384.033 -0.436591 391 0.0633931 393C6.56341 404 43.8116 433.5 43.8116 433.5L89.0958 460L141.5 474L208.345 481.202L277.596 479C277.596 479 328.096 469 341.096 462.5C354.096 456 387.596 434 387.596 434C403.18 424.16 408.096 419 409.096 418C409.596 416 417.596 409.5 417.596 398C415.096 389.5 409.545 386.669 405.145 385.736C403.278 385.469 399.678 384.402 397.145 383.736C392.478 382.269 391.545 381.869 375.545 374.669C370.611 372.536 363.278 370.002 359.278 369.069C354.745 368.136 351.545 366.669 351.145 365.336C350.745 364.136 348.211 361.736 345.545 359.869C342.745 358.136 338.211 354.802 335.545 352.536C332.345 349.869 327.945 347.869 322.878 346.802C313.678 344.936 300.611 344.669 301.678 346.402C302.078 347.069 305.811 349.469 309.811 351.736C325.411 360.536 329.411 368.002 323.678 377.869C320.078 384.002 315.011 391.336 311.145 395.469C307.545 399.469 294.078 404.269 275.811 408.002C262.611 410.802 256.878 411.202 235.145 411.069C213.678 411.069 207.945 410.536 197.812 408.136C173.145 402.002 155.812 393.869 134.878 378.269C115.945 364.402 110.478 354.802 117.545 348.136C119.278 346.536 121.145 345.202 121.945 345.202C122.612 345.202 124.345 344.269 125.678 343.202C130.612 339.469 118.612 340.802 111.145 344.802Z" fill="#13505B" fill-opacity="0.5"/>
</svg>
