<svg width="96" height="96" viewBox="0 0 96 96" fill="none" xmlns="http://www.w3.org/2000/svg">
<path d="M48 0C21.492 0 0 21.8285 0 48.7516C0 71.5958 15.488 90.7105 36.368 96C36.144 95.3419 36 94.5781 36 93.6315V85.299C34.052 85.299 30.788 85.299 29.968 85.299C26.684 85.299 23.764 83.8649 22.348 81.1998C20.776 78.2382 20.504 73.7083 16.608 70.9376C15.452 70.0154 16.332 68.9632 17.664 69.1054C20.124 69.8123 22.164 71.5267 24.084 74.0699C25.996 76.6172 26.896 77.1941 30.468 77.1941C32.2 77.1941 34.792 77.0925 37.232 76.7025C38.544 73.3183 40.812 70.2023 43.584 68.7316C27.6 67.0619 19.972 58.9854 19.972 48.0203C19.972 43.2995 21.952 38.7331 25.316 34.8858C24.212 31.0669 22.824 23.2789 25.74 20.3132C32.932 20.3132 37.28 25.0502 38.324 26.3299C41.908 25.0827 45.844 24.3758 49.98 24.3758C54.124 24.3758 58.076 25.0827 61.668 26.338C62.7 25.0664 67.052 20.3132 74.26 20.3132C77.188 23.2829 75.784 31.1035 74.668 34.9143C78.012 38.7535 79.98 43.3077 79.98 48.0203C79.98 58.9772 72.364 67.0497 56.404 68.7276C60.796 71.0554 64 77.5963 64 82.5243V93.6315C64 94.054 63.908 94.3587 63.86 94.7203C82.564 88.0616 96 70.0235 96 48.7516C96 21.8285 74.508 0 48 0Z" fill="#D7D9CE"/>
</svg>
