<svg width="96" height="96" viewBox="0 0 96 96" fill="none" xmlns="http://www.w3.org/2000/svg">
<path d="M11.4286 0C5.14396 0 0 5.14396 0 11.4286V84.5714C0 90.856 5.14396 96 11.4286 96H84.5714C90.856 96 96 90.856 96 84.5714V11.4286C96 5.14396 90.856 0 84.5714 0H11.4286ZM11.4286 4.57143H84.5714C88.3851 4.57143 91.4286 7.61489 91.4286 11.4286V84.5714C91.4286 88.3851 88.3851 91.4286 84.5714 91.4286H11.4286C7.61489 91.4286 4.57143 88.3851 4.57143 84.5714V11.4286C4.57143 7.61489 7.61489 4.57143 11.4286 4.57143ZM22.8571 16.0268C20.3538 16.0268 18.1011 16.775 16.433 18.1786C14.765 19.5821 13.7411 21.6789 13.7411 23.9241C13.7411 28.1919 17.4429 31.5191 22.1518 31.8482L22.1607 31.8527C22.3851 31.9292 22.6201 31.9698 22.8571 31.9732C28.0526 31.9732 31.9732 28.3339 31.9732 23.9241C31.9728 23.8839 31.9713 23.8437 31.9688 23.8036C31.7362 19.4602 27.8639 16.0268 22.8571 16.0268ZM22.8571 20.5446C26.0394 20.5446 27.2959 21.9658 27.433 23.9821C27.4053 25.9393 26.1945 27.4554 22.8571 27.4554C19.6905 27.4554 18.2589 25.8337 18.2589 23.9241C18.2589 22.9693 18.6073 22.2498 19.3393 21.6339C20.0712 21.018 21.2462 20.5446 22.8571 20.5446ZM16 34.2857C15.3938 34.2858 14.8125 34.5266 14.3838 34.9553C13.9552 35.3839 13.7143 35.9652 13.7143 36.5714V80C13.7143 80.6062 13.9552 81.1875 14.3838 81.6162C14.8125 82.0448 15.3938 82.2857 16 82.2857H29.7143C30.3205 82.2857 30.9018 82.0448 31.3305 81.6162C31.7591 81.1875 31.9999 80.6062 32 80V66.5938V36.5714C31.9999 35.9652 31.7591 35.3839 31.3305 34.9553C30.9018 34.5266 30.3205 34.2858 29.7143 34.2857H16ZM36.5714 34.2857C35.9652 34.2858 35.3839 34.5266 34.9553 34.9553C34.5266 35.3839 34.2858 35.9652 34.2857 36.5714V80C34.2858 80.6062 34.5266 81.1875 34.9553 81.6162C35.3839 82.0448 35.9652 82.2857 36.5714 82.2857H50.2857C50.8919 82.2857 51.4733 82.0448 51.9019 81.6162C52.3305 81.1875 52.5714 80.6062 52.5714 80V57.1429C52.5714 55.2465 53.0889 53.3601 54 52.125C54.9111 50.8899 56.0605 50.1487 58.2455 50.1875C60.4987 50.2262 61.6914 50.9981 62.5938 52.2098C63.4961 53.4215 64 55.2381 64 57.1429V80C64.0001 80.6062 64.2409 81.1875 64.6695 81.6162C65.0982 82.0448 65.6795 82.2857 66.2857 82.2857H80C80.6062 82.2857 81.1875 82.0448 81.6162 81.6162C82.0448 81.1875 82.2857 80.6062 82.2857 80V55.4554C82.2857 48.6861 80.2807 43.3242 76.8438 39.6964C73.4068 36.0687 68.6267 34.2857 63.5714 34.2857C58.7668 34.2857 55.1105 35.8969 52.5714 37.5402V36.5714C52.5714 35.9652 52.3305 35.3839 51.9019 34.9553C51.4733 34.5266 50.8919 34.2858 50.2857 34.2857H36.5714ZM18.2857 38.8571H27.4286V66.5938V77.7143H18.2857V38.8571ZM38.8571 38.8571H48V42.4241C48.0001 42.9034 48.1509 43.3705 48.431 43.7594C48.7111 44.1483 49.1064 44.4394 49.561 44.5914C50.0155 44.7434 50.5063 44.7487 50.964 44.6065C51.4217 44.4643 51.8232 44.1819 52.1116 43.7991C52.1116 43.7991 55.701 38.8571 63.5714 38.8571C67.579 38.8571 71.0157 40.1888 73.5268 42.8393C76.0379 45.4898 77.7143 49.5732 77.7143 55.4554V77.7143H68.5714V57.1429C68.5714 54.4762 67.9325 51.7191 66.2634 49.4777C64.5943 47.2363 61.7871 45.6756 58.3259 45.6161C54.8469 45.5543 51.9943 47.1474 50.3214 49.4152C48.6485 51.683 48 54.4678 48 57.1429V77.7143H38.8571V38.8571Z" fill="#D7D9CE"/>
</svg>
