<svg width="96" height="96" viewBox="0 0 96 96" fill="none" xmlns="http://www.w3.org/2000/svg">
<path d="M28.3636 0C12.7254 0 0 12.7254 0 28.3636V67.6364C0 83.2746 12.7254 96 28.3636 96H67.6364C83.2746 96 96 83.2746 96 67.6364V28.3636C96 12.7254 83.2746 0 67.6364 0H28.3636ZM28.3636 4.36364H67.6364C80.916 4.36364 91.6364 15.084 91.6364 28.3636V67.6364C91.6364 80.916 80.916 91.6364 67.6364 91.6364H28.3636C15.084 91.6364 4.36364 80.916 4.36364 67.6364V28.3636C4.36364 15.084 15.084 4.36364 28.3636 4.36364ZM74.1818 17.4545C73.0245 17.4545 71.9146 17.9143 71.0963 18.7326C70.2779 19.551 69.8182 20.6609 69.8182 21.8182C69.8182 22.9755 70.2779 24.0854 71.0963 24.9037C71.9146 25.7221 73.0245 26.1818 74.1818 26.1818C75.3391 26.1818 76.449 25.7221 77.2674 24.9037C78.0857 24.0854 78.5455 22.9755 78.5455 21.8182C78.5455 20.6609 78.0857 19.551 77.2674 18.7326C76.449 17.9143 75.3391 17.4545 74.1818 17.4545ZM48 24C34.771 24 24 34.771 24 48C24 61.229 34.771 72 48 72C61.229 72 72 61.229 72 48C72 34.771 61.229 24 48 24ZM48 28.3636C58.8707 28.3636 67.6364 37.1293 67.6364 48C67.6364 58.8707 58.8707 67.6364 48 67.6364C37.1293 67.6364 28.3636 58.8707 28.3636 48C28.3636 37.1293 37.1293 28.3636 48 28.3636Z" fill="#D7D9CE"/>
</svg>
